<svg width="573" height="211" viewBox="0 0 573 211" fill="none" xmlns="http://www.w3.org/2000/svg">
<g clip-path="url(#clip0_521_7068)">
<rect width="573" height="211" fill="white"/>
<path d="M-1572 -647H573V211H-1572V-647Z" fill="#0F0F0F"/>
<mask id="path-2-inside-1_521_7068" fill="white">
<path d="M536 211L536 -647H573L573 211H536Z"/>
</mask>
<path d="M536 211L536 -647H573L573 211H536Z" fill="#2E2E2E"/>
<path d="M537 211L537 -647H535L535 211H537Z" fill="#242424" mask="url(#path-2-inside-1_521_7068)"/>
<rect x="-1572" y="-22" width="2108" height="32" fill="#0C0C0C"/>
<path d="M283.151 -7.72727V1H281.83V-6.40625H281.778L279.69 -5.04261V-6.30398L281.868 -7.72727H283.151ZM284.671 1V0.0454546L287.624 -3.0142C287.94 -3.34659 288.2 -3.63778 288.404 -3.88778C288.612 -4.14063 288.767 -4.38068 288.869 -4.60795C288.971 -4.83523 289.022 -5.0767 289.022 -5.33239C289.022 -5.62216 288.954 -5.87216 288.818 -6.08239C288.681 -6.29545 288.495 -6.45881 288.259 -6.57244C288.024 -6.68892 287.758 -6.74716 287.463 -6.74716C287.15 -6.74716 286.877 -6.68324 286.644 -6.5554C286.411 -6.42756 286.232 -6.24716 286.107 -6.0142C285.982 -5.78125 285.92 -5.50852 285.92 -5.19602H284.663C284.663 -5.72727 284.785 -6.19176 285.029 -6.58949C285.274 -6.98722 285.609 -7.29545 286.035 -7.5142C286.461 -7.7358 286.946 -7.84659 287.488 -7.84659C288.036 -7.84659 288.519 -7.73722 288.937 -7.51847C289.357 -7.30256 289.686 -7.0071 289.921 -6.6321C290.157 -6.25994 290.275 -5.83949 290.275 -5.37074C290.275 -5.04688 290.214 -4.73011 290.092 -4.42045C289.973 -4.1108 289.764 -3.76563 289.465 -3.38494C289.167 -3.0071 288.752 -2.5483 288.221 -2.00852L286.487 -0.193182V-0.129261H290.416V1H284.671ZM294.14 1.11932C293.529 1.11932 292.989 1.0142 292.52 0.803977C292.054 0.59375 291.689 0.303977 291.425 -0.065341C291.161 -0.434659 291.03 -0.855114 291.033 -1.3267C291.03 -1.69602 291.106 -2.03551 291.259 -2.34517C291.415 -2.65767 291.627 -2.91761 291.894 -3.125C292.161 -3.33523 292.459 -3.46875 292.789 -3.52557V-3.5767C292.354 -3.68182 292.006 -3.91477 291.745 -4.27557C291.483 -4.63636 291.354 -5.05114 291.357 -5.51989C291.354 -5.96591 291.472 -6.36364 291.711 -6.71307C291.952 -7.06534 292.283 -7.34233 292.704 -7.54403C293.124 -7.74574 293.603 -7.84659 294.14 -7.84659C294.671 -7.84659 295.145 -7.74432 295.563 -7.53977C295.983 -7.33807 296.314 -7.06108 296.556 -6.70881C296.797 -6.35938 296.919 -5.96307 296.922 -5.51989C296.919 -5.05114 296.786 -4.63636 296.522 -4.27557C296.257 -3.91477 295.914 -3.68182 295.49 -3.5767V-3.52557C295.817 -3.46875 296.111 -3.33523 296.373 -3.125C296.637 -2.91761 296.847 -2.65767 297.003 -2.34517C297.162 -2.03551 297.243 -1.69602 297.246 -1.3267C297.243 -0.855114 297.11 -0.434659 296.846 -0.065341C296.581 0.303977 296.215 0.59375 295.746 0.803977C295.28 1.0142 294.745 1.11932 294.14 1.11932ZM294.14 0.0411932C294.5 0.0411932 294.813 -0.0184659 295.077 -0.137784C295.341 -0.259943 295.546 -0.428977 295.691 -0.644886C295.836 -0.863636 295.909 -1.11932 295.912 -1.41193C295.909 -1.71591 295.83 -1.98438 295.674 -2.21733C295.52 -2.45028 295.311 -2.63352 295.047 -2.76705C294.783 -2.90057 294.481 -2.96733 294.14 -2.96733C293.796 -2.96733 293.49 -2.90057 293.223 -2.76705C292.956 -2.63352 292.746 -2.45028 292.593 -2.21733C292.439 -1.98438 292.364 -1.71591 292.367 -1.41193C292.364 -1.11932 292.434 -0.863636 292.576 -0.644886C292.721 -0.428977 292.927 -0.259943 293.194 -0.137784C293.461 -0.0184659 293.776 0.0411932 294.14 0.0411932ZM294.14 -4.01989C294.429 -4.01989 294.686 -4.07813 294.911 -4.1946C295.135 -4.31108 295.311 -4.47301 295.439 -4.6804C295.57 -4.88778 295.637 -5.13068 295.64 -5.40909C295.637 -5.68182 295.571 -5.92045 295.444 -6.125C295.319 -6.32955 295.144 -6.48722 294.919 -6.59801C294.695 -6.71165 294.435 -6.76847 294.14 -6.76847C293.838 -6.76847 293.574 -6.71165 293.347 -6.59801C293.123 -6.48722 292.948 -6.32955 292.823 -6.125C292.698 -5.92045 292.637 -5.68182 292.64 -5.40909C292.637 -5.13068 292.699 -4.88778 292.827 -4.6804C292.955 -4.47301 293.131 -4.31108 293.356 -4.1946C293.583 -4.07813 293.844 -4.01989 294.14 -4.01989ZM298.531 1.08097C298.299 1.08097 298.098 0.99858 297.931 0.833807C297.763 0.666193 297.679 0.464489 297.679 0.228693C297.679 -0.0042614 297.763 -0.203125 297.931 -0.367898C298.098 -0.535511 298.299 -0.619318 298.531 -0.619318C298.764 -0.619318 298.965 -0.535511 299.132 -0.367898C299.3 -0.203125 299.384 -0.0042614 299.384 0.228693C299.384 0.384943 299.344 0.528409 299.264 0.659091C299.188 0.786932 299.085 0.889205 298.958 0.965909C298.83 1.04261 298.688 1.08097 298.531 1.08097ZM302.955 1.14489C302.282 1.14205 301.707 0.964489 301.229 0.612216C300.752 0.259943 300.387 -0.252841 300.134 -0.926136C299.881 -1.59943 299.755 -2.41051 299.755 -3.35938C299.755 -4.3054 299.881 -5.11364 300.134 -5.78409C300.39 -6.45455 300.756 -6.96591 301.234 -7.31818C301.714 -7.67045 302.288 -7.84659 302.955 -7.84659C303.623 -7.84659 304.195 -7.66903 304.673 -7.31392C305.15 -6.96165 305.515 -6.45028 305.768 -5.77983C306.024 -5.11222 306.151 -4.3054 306.151 -3.35938C306.151 -2.40767 306.025 -1.59517 305.772 -0.921875C305.519 -0.25142 305.154 0.261364 304.677 0.616477C304.2 0.96875 303.626 1.14489 302.955 1.14489ZM302.955 0.00710228C303.546 0.00710228 304.008 -0.28125 304.34 -0.857955C304.676 -1.43466 304.843 -2.26847 304.843 -3.35938C304.843 -4.08381 304.766 -4.69602 304.613 -5.19602C304.462 -5.69886 304.245 -6.07955 303.961 -6.33807C303.68 -6.59943 303.345 -6.73011 302.955 -6.73011C302.367 -6.73011 301.906 -6.44034 301.57 -5.8608C301.235 -5.28125 301.066 -4.44744 301.063 -3.35938C301.063 -2.6321 301.139 -2.01705 301.289 -1.5142C301.443 -1.0142 301.66 -0.634943 301.941 -0.376421C302.222 -0.120739 302.56 0.00710228 302.955 0.00710228ZM309.861 1.14489C309.188 1.14205 308.613 0.964489 308.136 0.612216C307.658 0.259943 307.293 -0.252841 307.04 -0.926136C306.788 -1.59943 306.661 -2.41051 306.661 -3.35938C306.661 -4.3054 306.788 -5.11364 307.04 -5.78409C307.296 -6.45455 307.663 -6.96591 308.14 -7.31818C308.62 -7.67045 309.194 -7.84659 309.861 -7.84659C310.529 -7.84659 311.101 -7.66903 311.579 -7.31392C312.056 -6.96165 312.421 -6.45028 312.674 -5.77983C312.93 -5.11222 313.057 -4.3054 313.057 -3.35938C313.057 -2.40767 312.931 -1.59517 312.678 -0.921875C312.425 -0.25142 312.06 0.261364 311.583 0.616477C311.106 0.96875 310.532 1.14489 309.861 1.14489ZM309.861 0.00710228C310.452 0.00710228 310.914 -0.28125 311.246 -0.857955C311.582 -1.43466 311.749 -2.26847 311.749 -3.35938C311.749 -4.08381 311.673 -4.69602 311.519 -5.19602C311.369 -5.69886 311.151 -6.07955 310.867 -6.33807C310.586 -6.59943 310.251 -6.73011 309.861 -6.73011C309.273 -6.73011 308.812 -6.44034 308.476 -5.8608C308.141 -5.28125 307.972 -4.44744 307.969 -3.35938C307.969 -2.6321 308.045 -2.01705 308.195 -1.5142C308.349 -1.0142 308.566 -0.634943 308.847 -0.376421C309.128 -0.120739 309.467 0.00710228 309.861 0.00710228Z" fill="white"/>
<path d="M396.878 3.14489C396.205 3.14205 395.629 2.96449 395.152 2.61222C394.675 2.25994 394.31 1.74716 394.057 1.07386C393.804 0.400568 393.678 -0.410511 393.678 -1.35938C393.678 -2.3054 393.804 -3.11364 394.057 -3.78409C394.313 -4.45455 394.679 -4.96591 395.156 -5.31818C395.636 -5.67045 396.21 -5.84659 396.878 -5.84659C397.545 -5.84659 398.118 -5.66903 398.595 -5.31392C399.072 -4.96165 399.438 -4.45028 399.69 -3.77983C399.946 -3.11222 400.074 -2.3054 400.074 -1.35938C400.074 -0.40767 399.947 0.40483 399.695 1.07812C399.442 1.74858 399.077 2.26136 398.599 2.61648C398.122 2.96875 397.548 3.14489 396.878 3.14489ZM396.878 2.0071C397.469 2.0071 397.93 1.71875 398.263 1.14205C398.598 0.565341 398.766 -0.268466 398.766 -1.35938C398.766 -2.08381 398.689 -2.69602 398.536 -3.19602C398.385 -3.69886 398.168 -4.07955 397.884 -4.33807C397.602 -4.59943 397.267 -4.73011 396.878 -4.73011C396.29 -4.73011 395.828 -4.44034 395.493 -3.8608C395.158 -3.28125 394.989 -2.44744 394.986 -1.35938C394.986 -0.632102 395.061 -0.0170454 395.212 0.485795C395.365 0.985795 395.582 1.36506 395.864 1.62358C396.145 1.87926 396.483 2.0071 396.878 2.0071ZM400.562 1.29545V0.230114L404.334 -5.72727H405.173V-4.15909H404.64L401.943 0.110795V0.178977H407.112V1.29545H400.562ZM404.7 3V0.971591L404.709 0.485795V-5.72727H405.957V3H404.7ZM408.614 1.91761C408.381 1.91761 408.18 1.83523 408.013 1.67045C407.845 1.50284 407.761 1.30114 407.761 1.06534C407.761 0.832386 407.845 0.633523 408.013 0.46875C408.18 0.301136 408.381 0.217329 408.614 0.217329C408.847 0.217329 409.047 0.301136 409.215 0.46875C409.382 0.633523 409.466 0.832386 409.466 1.06534C409.466 1.22159 409.426 1.36506 409.347 1.49574C409.27 1.62358 409.168 1.72585 409.04 1.80256C408.912 1.87926 408.77 1.91761 408.614 1.91761ZM408.614 -2.45455C408.381 -2.45455 408.18 -2.53693 408.013 -2.7017C407.845 -2.86932 407.761 -3.07102 407.761 -3.30682C407.761 -3.53977 407.845 -3.73864 408.013 -3.90341C408.18 -4.07102 408.381 -4.15483 408.614 -4.15483C408.847 -4.15483 409.047 -4.07102 409.215 -3.90341C409.382 -3.73864 409.466 -3.53977 409.466 -3.30682C409.466 -3.15057 409.426 -3.0071 409.347 -2.87642C409.27 -2.74858 409.168 -2.64631 409.04 -2.5696C408.912 -2.4929 408.77 -2.45455 408.614 -2.45455ZM413.354 3.11932C412.769 3.11932 412.246 3.01847 411.786 2.81676C411.328 2.61506 410.966 2.33523 410.699 1.97727C410.435 1.61648 410.293 1.19886 410.273 0.724432H411.611C411.628 0.982955 411.715 1.20739 411.871 1.39773C412.03 1.58523 412.237 1.73011 412.493 1.83239C412.749 1.93466 413.033 1.9858 413.345 1.9858C413.689 1.9858 413.993 1.92614 414.257 1.80682C414.524 1.6875 414.733 1.52131 414.884 1.30824C415.034 1.09233 415.11 0.84375 415.11 0.5625C415.11 0.269886 415.034 0.012784 414.884 -0.208807C414.736 -0.433239 414.519 -0.609375 414.232 -0.737216C413.948 -0.865057 413.604 -0.928977 413.201 -0.928977H412.463V-2.00284H413.201C413.524 -2.00284 413.808 -2.06108 414.053 -2.17756C414.3 -2.29403 414.493 -2.45597 414.632 -2.66335C414.772 -2.87358 414.841 -3.11932 414.841 -3.40057C414.841 -3.67045 414.78 -3.90483 414.658 -4.10369C414.539 -4.3054 414.368 -4.46307 414.147 -4.5767C413.928 -4.69034 413.669 -4.74716 413.371 -4.74716C413.087 -4.74716 412.821 -4.6946 412.574 -4.58949C412.33 -4.48722 412.131 -4.33949 411.978 -4.14631C411.824 -3.95597 411.742 -3.72727 411.73 -3.46023H410.456C410.47 -3.93182 410.61 -4.34659 410.874 -4.70455C411.141 -5.0625 411.493 -5.34233 411.931 -5.54403C412.368 -5.74574 412.854 -5.84659 413.388 -5.84659C413.948 -5.84659 414.431 -5.73722 414.837 -5.51847C415.246 -5.30256 415.561 -5.0142 415.783 -4.65341C416.007 -4.29261 416.118 -3.89773 416.115 -3.46875C416.118 -2.98011 415.982 -2.56534 415.706 -2.22443C415.433 -1.88352 415.07 -1.65483 414.615 -1.53835V-1.47017C415.195 -1.3821 415.644 -1.15199 415.962 -0.77983C416.283 -0.40767 416.442 0.0539773 416.439 0.605114C416.442 1.08523 416.308 1.51562 416.039 1.89631C415.772 2.27699 415.406 2.5767 414.943 2.79545C414.48 3.01136 413.951 3.11932 413.354 3.11932ZM420.159 3.11932C419.548 3.11932 419.008 3.0142 418.54 2.80398C418.074 2.59375 417.709 2.30398 417.444 1.93466C417.18 1.56534 417.049 1.14489 417.052 0.673295C417.049 0.303977 417.125 -0.0355115 417.278 -0.345171C417.434 -0.657671 417.646 -0.917614 417.913 -1.125C418.18 -1.33523 418.478 -1.46875 418.808 -1.52557V-1.5767C418.373 -1.68182 418.025 -1.91477 417.764 -2.27557C417.503 -2.63636 417.373 -3.05114 417.376 -3.51989C417.373 -3.96591 417.491 -4.36364 417.73 -4.71307C417.971 -5.06534 418.302 -5.34233 418.723 -5.54403C419.143 -5.74574 419.622 -5.84659 420.159 -5.84659C420.69 -5.84659 421.165 -5.74432 421.582 -5.53977C422.003 -5.33807 422.334 -5.06108 422.575 -4.70881C422.816 -4.35938 422.939 -3.96307 422.941 -3.51989C422.939 -3.05114 422.805 -2.63636 422.541 -2.27557C422.277 -1.91477 421.933 -1.68182 421.51 -1.5767V-1.52557C421.836 -1.46875 422.13 -1.33523 422.392 -1.125C422.656 -0.917614 422.866 -0.657671 423.022 -0.345171C423.182 -0.0355115 423.263 0.303977 423.265 0.673295C423.263 1.14489 423.129 1.56534 422.865 1.93466C422.601 2.30398 422.234 2.59375 421.765 2.80398C421.299 3.0142 420.764 3.11932 420.159 3.11932ZM420.159 2.04119C420.52 2.04119 420.832 1.98153 421.096 1.86222C421.361 1.74006 421.565 1.57102 421.71 1.35511C421.855 1.13636 421.929 0.880682 421.932 0.588068C421.929 0.284091 421.849 0.0156249 421.693 -0.21733C421.54 -0.450284 421.331 -0.633523 421.066 -0.767046C420.802 -0.900568 420.5 -0.96733 420.159 -0.96733C419.815 -0.96733 419.51 -0.900568 419.243 -0.767046C418.976 -0.633523 418.765 -0.450284 418.612 -0.21733C418.459 0.0156249 418.383 0.284091 418.386 0.588068C418.383 0.880682 418.453 1.13636 418.595 1.35511C418.74 1.57102 418.946 1.74006 419.213 1.86222C419.48 1.98153 419.795 2.04119 420.159 2.04119ZM420.159 -2.01989C420.449 -2.01989 420.706 -2.07813 420.93 -2.1946C421.155 -2.31108 421.331 -2.47301 421.459 -2.6804C421.589 -2.88778 421.656 -3.13068 421.659 -3.40909C421.656 -3.68182 421.591 -3.92045 421.463 -4.125C421.338 -4.32955 421.163 -4.48722 420.939 -4.59801C420.714 -4.71165 420.454 -4.76847 420.159 -4.76847C419.858 -4.76847 419.593 -4.71165 419.366 -4.59801C419.142 -4.48722 418.967 -4.32955 418.842 -4.125C418.717 -3.92045 418.656 -3.68182 418.659 -3.40909C418.656 -3.13068 418.718 -2.88778 418.846 -2.6804C418.974 -2.47301 419.15 -2.31108 419.375 -2.1946C419.602 -2.07813 419.863 -2.01989 420.159 -2.01989Z" fill="white"/>
<path d="M469.878 3.14489C469.205 3.14205 468.629 2.96449 468.152 2.61222C467.675 2.25994 467.31 1.74716 467.057 1.07386C466.804 0.400568 466.678 -0.410511 466.678 -1.35938C466.678 -2.3054 466.804 -3.11364 467.057 -3.78409C467.313 -4.45455 467.679 -4.96591 468.156 -5.31818C468.636 -5.67045 469.21 -5.84659 469.878 -5.84659C470.545 -5.84659 471.118 -5.66903 471.595 -5.31392C472.072 -4.96165 472.438 -4.45028 472.69 -3.77983C472.946 -3.11222 473.074 -2.3054 473.074 -1.35938C473.074 -0.40767 472.947 0.40483 472.695 1.07812C472.442 1.74858 472.077 2.26136 471.599 2.61648C471.122 2.96875 470.548 3.14489 469.878 3.14489ZM469.878 2.0071C470.469 2.0071 470.93 1.71875 471.263 1.14205C471.598 0.565341 471.766 -0.268466 471.766 -1.35938C471.766 -2.08381 471.689 -2.69602 471.536 -3.19602C471.385 -3.69886 471.168 -4.07955 470.884 -4.33807C470.602 -4.59943 470.267 -4.73011 469.878 -4.73011C469.29 -4.73011 468.828 -4.44034 468.493 -3.8608C468.158 -3.28125 467.989 -2.44744 467.986 -1.35938C467.986 -0.632102 468.061 -0.0170454 468.212 0.485795C468.365 0.985795 468.582 1.36506 468.864 1.62358C469.145 1.87926 469.483 2.0071 469.878 2.0071ZM473.805 3L477.615 -4.53409V-4.59801H473.209V-5.72727H478.979V-4.55966L475.182 3H473.805ZM482.961 -6.13636L480.149 4.3125H479.011L481.824 -6.13636H482.961ZM486.498 -5.72727V3H485.177V-4.40625H485.126L483.038 -3.04261V-4.30398L485.215 -5.72727H486.498ZM488.019 3V2.04545L490.972 -1.0142C491.287 -1.34659 491.547 -1.63778 491.752 -1.88778C491.959 -2.14063 492.114 -2.38068 492.216 -2.60795C492.318 -2.83523 492.369 -3.0767 492.369 -3.33239C492.369 -3.62216 492.301 -3.87216 492.165 -4.08239C492.028 -4.29545 491.842 -4.45881 491.607 -4.57244C491.371 -4.68892 491.105 -4.74716 490.81 -4.74716C490.497 -4.74716 490.225 -4.68324 489.992 -4.5554C489.759 -4.42756 489.58 -4.24716 489.455 -4.0142C489.33 -3.78125 489.267 -3.50852 489.267 -3.19602H488.01C488.01 -3.72727 488.132 -4.19176 488.377 -4.58949C488.621 -4.98722 488.956 -5.29545 489.382 -5.5142C489.808 -5.7358 490.293 -5.84659 490.835 -5.84659C491.384 -5.84659 491.867 -5.73722 492.284 -5.51847C492.705 -5.30256 493.033 -5.0071 493.269 -4.6321C493.504 -4.25994 493.622 -3.83949 493.622 -3.37074C493.622 -3.04688 493.561 -2.73011 493.439 -2.42045C493.32 -2.1108 493.111 -1.76563 492.813 -1.38494C492.514 -1.0071 492.1 -0.548295 491.568 -0.00852299L489.834 1.80682V1.87074H493.763V3H488.019ZM497.879 -6.13636L495.066 4.3125H493.929L496.741 -6.13636H497.879ZM498.104 3V2.04545L501.057 -1.0142C501.373 -1.34659 501.633 -1.63778 501.837 -1.88778C502.045 -2.14063 502.199 -2.38068 502.302 -2.60795C502.404 -2.83523 502.455 -3.0767 502.455 -3.33239C502.455 -3.62216 502.387 -3.87216 502.25 -4.08239C502.114 -4.29545 501.928 -4.45881 501.692 -4.57244C501.456 -4.68892 501.191 -4.74716 500.895 -4.74716C500.583 -4.74716 500.31 -4.68324 500.077 -4.5554C499.844 -4.42756 499.665 -4.24716 499.54 -4.0142C499.415 -3.78125 499.353 -3.50852 499.353 -3.19602H498.096C498.096 -3.72727 498.218 -4.19176 498.462 -4.58949C498.706 -4.98722 499.042 -5.29545 499.468 -5.5142C499.894 -5.7358 500.378 -5.84659 500.921 -5.84659C501.469 -5.84659 501.952 -5.73722 502.37 -5.51847C502.79 -5.30256 503.118 -5.0071 503.354 -4.6321C503.59 -4.25994 503.708 -3.83949 503.708 -3.37074C503.708 -3.04688 503.647 -2.73011 503.525 -2.42045C503.405 -2.1108 503.197 -1.76563 502.898 -1.38494C502.6 -1.0071 502.185 -0.548295 501.654 -0.00852299L499.92 1.80682V1.87074H503.848V3H498.104ZM507.662 3.14489C506.989 3.14205 506.413 2.96449 505.936 2.61222C505.459 2.25994 505.094 1.74716 504.841 1.07386C504.588 0.400568 504.462 -0.410511 504.462 -1.35938C504.462 -2.3054 504.588 -3.11364 504.841 -3.78409C505.097 -4.45455 505.463 -4.96591 505.94 -5.31818C506.42 -5.67045 506.994 -5.84659 507.662 -5.84659C508.33 -5.84659 508.902 -5.66903 509.379 -5.31392C509.857 -4.96165 510.222 -4.45028 510.474 -3.77983C510.73 -3.11222 510.858 -2.3054 510.858 -1.35938C510.858 -0.40767 510.732 0.40483 510.479 1.07812C510.226 1.74858 509.861 2.26136 509.383 2.61648C508.906 2.96875 508.332 3.14489 507.662 3.14489ZM507.662 2.0071C508.253 2.0071 508.714 1.71875 509.047 1.14205C509.382 0.565341 509.55 -0.268466 509.55 -1.35938C509.55 -2.08381 509.473 -2.69602 509.32 -3.19602C509.169 -3.69886 508.952 -4.07955 508.668 -4.33807C508.386 -4.59943 508.051 -4.73011 507.662 -4.73011C507.074 -4.73011 506.612 -4.44034 506.277 -3.8608C505.942 -3.28125 505.773 -2.44744 505.77 -1.35938C505.77 -0.632102 505.845 -0.0170454 505.996 0.485795C506.149 0.985795 506.366 1.36506 506.648 1.62358C506.929 1.87926 507.267 2.0071 507.662 2.0071ZM511.53 3V2.04545L514.483 -1.0142C514.798 -1.34659 515.058 -1.63778 515.263 -1.88778C515.47 -2.14063 515.625 -2.38068 515.727 -2.60795C515.829 -2.83523 515.88 -3.0767 515.88 -3.33239C515.88 -3.62216 515.812 -3.87216 515.676 -4.08239C515.54 -4.29545 515.354 -4.45881 515.118 -4.57244C514.882 -4.68892 514.616 -4.74716 514.321 -4.74716C514.008 -4.74716 513.736 -4.68324 513.503 -4.5554C513.27 -4.42756 513.091 -4.24716 512.966 -4.0142C512.841 -3.78125 512.778 -3.50852 512.778 -3.19602H511.521C511.521 -3.72727 511.643 -4.19176 511.888 -4.58949C512.132 -4.98722 512.467 -5.29545 512.893 -5.5142C513.319 -5.7358 513.804 -5.84659 514.346 -5.84659C514.895 -5.84659 515.378 -5.73722 515.795 -5.51847C516.216 -5.30256 516.544 -5.0071 516.78 -4.6321C517.015 -4.25994 517.133 -3.83949 517.133 -3.37074C517.133 -3.04688 517.072 -2.73011 516.95 -2.42045C516.831 -2.1108 516.622 -1.76563 516.324 -1.38494C516.025 -1.0071 515.611 -0.548295 515.079 -0.00852299L513.345 1.80682V1.87074H517.274V3H511.53ZM517.678 1.29545V0.230114L521.45 -5.72727H522.289V-4.15909H521.756L519.059 0.110795V0.178977H524.228V1.29545H517.678ZM521.816 3V0.971591L521.825 0.485795V-5.72727H523.073V3H521.816Z" fill="white"/>
<path d="M353.878 1.11932C353.244 1.11932 352.682 1.01278 352.19 0.799716C351.702 0.586648 351.318 0.295455 351.04 -0.0738637C350.764 -0.446023 350.628 -0.867898 350.631 -1.33949C350.628 -1.70597 350.707 -2.04261 350.869 -2.34943C351.031 -2.65625 351.25 -2.91193 351.526 -3.11648C351.804 -3.32386 352.114 -3.45597 352.455 -3.51278V-3.57244C352.006 -3.67188 351.642 -3.90057 351.364 -4.25852C351.088 -4.61932 350.952 -5.03551 350.955 -5.5071C350.952 -5.95597 351.077 -6.35653 351.33 -6.70881C351.582 -7.06108 351.929 -7.33807 352.369 -7.53977C352.81 -7.74432 353.313 -7.84659 353.878 -7.84659C354.438 -7.84659 354.936 -7.74432 355.374 -7.53977C355.814 -7.33807 356.161 -7.06108 356.413 -6.70881C356.669 -6.35653 356.797 -5.95597 356.797 -5.5071C356.797 -5.03551 356.656 -4.61932 356.375 -4.25852C356.097 -3.90057 355.737 -3.67188 355.297 -3.57244V-3.51278C355.638 -3.45597 355.945 -3.32386 356.217 -3.11648C356.493 -2.91193 356.712 -2.65625 356.874 -2.34943C357.038 -2.04261 357.121 -1.70597 357.121 -1.33949C357.121 -0.867898 356.982 -0.446023 356.703 -0.0738637C356.425 0.295455 356.041 0.586648 355.553 0.799716C355.067 1.01278 354.509 1.11932 353.878 1.11932ZM353.878 -0.0994318C354.205 -0.0994318 354.489 -0.15483 354.73 -0.265625C354.972 -0.379261 355.159 -0.538352 355.293 -0.742898C355.426 -0.947443 355.494 -1.18324 355.497 -1.45028C355.494 -1.72869 355.422 -1.97443 355.28 -2.1875C355.141 -2.40341 354.949 -2.57244 354.705 -2.6946C354.463 -2.81676 354.188 -2.87784 353.878 -2.87784C353.565 -2.87784 353.287 -2.81676 353.043 -2.6946C352.798 -2.57244 352.605 -2.40341 352.463 -2.1875C352.324 -1.97443 352.256 -1.72869 352.259 -1.45028C352.256 -1.18324 352.321 -0.947443 352.455 -0.742898C352.588 -0.541193 352.776 -0.383523 353.017 -0.269886C353.261 -0.15625 353.548 -0.0994318 353.878 -0.0994318ZM353.878 -4.07528C354.145 -4.07528 354.381 -4.12926 354.585 -4.23722C354.793 -4.34517 354.956 -4.49574 355.075 -4.68892C355.195 -4.8821 355.256 -5.10511 355.259 -5.35795C355.256 -5.60795 355.196 -5.8267 355.08 -6.0142C354.963 -6.20455 354.801 -6.35085 354.594 -6.45312C354.386 -6.55824 354.148 -6.6108 353.878 -6.6108C353.602 -6.6108 353.359 -6.55824 353.149 -6.45312C352.942 -6.35085 352.78 -6.20455 352.663 -6.0142C352.55 -5.8267 352.494 -5.60795 352.497 -5.35795C352.494 -5.10511 352.551 -4.8821 352.668 -4.68892C352.787 -4.49858 352.95 -4.34801 353.158 -4.23722C353.368 -4.12926 353.608 -4.07528 353.878 -4.07528ZM357.767 1V-7.72727H361.108C361.738 -7.72727 362.263 -7.62784 362.68 -7.42898C363.101 -7.23295 363.415 -6.96449 363.622 -6.62358C363.832 -6.28267 363.937 -5.89631 363.937 -5.46449C363.937 -5.10938 363.869 -4.8054 363.733 -4.55256C363.596 -4.30256 363.413 -4.09943 363.183 -3.94318C362.953 -3.78693 362.696 -3.67472 362.412 -3.60653V-3.52131C362.721 -3.50426 363.018 -3.40909 363.302 -3.2358C363.589 -3.06534 363.824 -2.82386 364.006 -2.51136C364.187 -2.19886 364.278 -1.82102 364.278 -1.37784C364.278 -0.926136 364.169 -0.519886 363.95 -0.159091C363.731 0.198864 363.402 0.481534 362.961 0.68892C362.521 0.896307 361.967 1 361.3 1H357.767ZM359.348 -0.321023H361.048C361.622 -0.321023 362.035 -0.430398 362.288 -0.649148C362.544 -0.870739 362.672 -1.15483 362.672 -1.50142C362.672 -1.75994 362.608 -1.9929 362.48 -2.20028C362.352 -2.41051 362.17 -2.57528 361.935 -2.6946C361.699 -2.81676 361.417 -2.87784 361.091 -2.87784H359.348V-0.321023ZM359.348 -4.01562H360.912C361.185 -4.01562 361.43 -4.06534 361.649 -4.16477C361.868 -4.26705 362.04 -4.41051 362.165 -4.59517C362.292 -4.78267 362.356 -5.00426 362.356 -5.25994C362.356 -5.59801 362.237 -5.87642 361.998 -6.09517C361.763 -6.31392 361.412 -6.4233 360.946 -6.4233H359.348V-4.01562Z" fill="#C7B34A"/>
<line x1="264.5" y1="-23" x2="264.5" y2="9" stroke="#202020"/>
<line x1="378.5" y1="-22" x2="378.5" y2="10" stroke="#202020"/>
<line x1="451.5" y1="-22" x2="451.5" y2="10" stroke="#202020"/>
<line x1="335.5" y1="-23" x2="335.5" y2="9" stroke="#202020"/>
<path d="M85 83C85 74.1634 92.1634 67 101 67H573V211H85V83Z" fill="#D9D9D9"/>
<path d="M542 96.12H558V80.12H542V96.12Z" fill="#696968"/>
<path d="M99.3409 80.5369V97.2812H97.6705V80.5369H99.3409Z" fill="#808080" fill-opacity="0.22"/>
<path d="M107.54 86.4183C107.563 85.8217 107.386 85.3544 107.008 85.0163C106.633 84.6783 106.108 84.5092 105.432 84.5092C104.961 84.5092 104.53 84.5921 104.139 84.7578C103.751 84.9202 103.432 85.1439 103.18 85.429C102.931 85.714 102.777 86.0388 102.717 86.4034C102.674 86.6719 102.694 86.9072 102.777 87.1094C102.86 87.3082 102.987 87.4806 103.16 87.6264C103.332 87.7723 103.529 87.8965 103.751 87.9993C103.977 88.102 104.205 88.1882 104.437 88.2578L105.467 88.5661C105.771 88.6555 106.075 88.7699 106.376 88.9091C106.678 89.0483 106.946 89.2223 107.182 89.4311C107.417 89.6399 107.591 89.8968 107.704 90.2017C107.82 90.5066 107.843 90.8712 107.773 91.2955C107.681 91.8456 107.459 92.3378 107.107 92.772C106.759 93.2029 106.302 93.5443 105.735 93.7962C105.168 94.0481 104.514 94.174 103.771 94.174C103.079 94.174 102.495 94.0597 102.021 93.831C101.547 93.599 101.198 93.2791 100.972 92.8714C100.747 92.4638 100.661 91.9915 100.714 91.4545H101.668C101.632 91.8556 101.706 92.1953 101.892 92.4737C102.081 92.7521 102.349 92.9643 102.697 93.1101C103.049 93.2526 103.453 93.3239 103.91 93.3239C104.418 93.3239 104.883 93.2393 105.307 93.0703C105.732 92.898 106.081 92.6593 106.356 92.3544C106.635 92.0462 106.807 91.6882 106.874 91.2805C106.933 90.9358 106.892 90.6458 106.749 90.4105C106.61 90.1752 106.393 89.978 106.098 89.8189C105.806 89.6565 105.458 89.514 105.054 89.3913L103.891 89.0334C103.132 88.8014 102.566 88.4749 102.195 88.054C101.827 87.633 101.696 87.0961 101.802 86.4432C101.895 85.893 102.122 85.4107 102.484 84.9964C102.848 84.5788 103.301 84.254 103.841 84.022C104.381 83.79 104.964 83.674 105.591 83.674C106.224 83.674 106.762 83.7917 107.207 84.027C107.654 84.2623 107.985 84.5871 108.201 85.0014C108.42 85.4124 108.501 85.8847 108.445 86.4183H107.54ZM112.675 86.3636L112.55 87.1342H108.901L109.031 86.3636H112.675ZM110.467 84.5341H111.357L110.114 92.0064C110.061 92.3246 110.075 92.5748 110.154 92.7571C110.234 92.9361 110.356 93.0637 110.522 93.1399C110.688 93.2128 110.87 93.2493 111.069 93.2493C111.185 93.2493 111.284 93.2427 111.367 93.2294C111.453 93.2128 111.53 93.1963 111.596 93.1797L111.661 93.9801C111.564 94.0133 111.45 94.0431 111.318 94.0696C111.185 94.0994 111.026 94.1143 110.84 94.1143C110.515 94.1143 110.215 94.0431 109.94 93.9006C109.665 93.758 109.456 93.5459 109.314 93.2642C109.171 92.9825 109.133 92.6328 109.2 92.2152L110.467 84.5341ZM114.545 94.174C114.084 94.174 113.678 94.0845 113.327 93.9055C112.975 93.7232 112.714 93.4614 112.541 93.12C112.372 92.7753 112.326 92.3577 112.402 91.8672C112.468 91.4893 112.594 91.1712 112.78 90.9126C112.969 90.6541 113.207 90.442 113.496 90.2763C113.784 90.1072 114.116 89.9747 114.49 89.8786C114.865 89.7824 115.272 89.7095 115.713 89.6598C116.144 89.6068 116.512 89.5604 116.817 89.5206C117.122 89.4808 117.359 89.4179 117.528 89.3317C117.697 89.2455 117.798 89.1063 117.831 88.9141L117.861 88.7351C117.947 88.2147 117.867 87.8054 117.622 87.5071C117.377 87.2055 116.966 87.0547 116.389 87.0547C115.839 87.0547 115.362 87.1773 114.957 87.4226C114.556 87.6645 114.258 87.9479 114.062 88.2727L113.277 87.9695C113.516 87.5518 113.809 87.2187 114.157 86.9702C114.505 86.7183 114.878 86.5376 115.276 86.4283C115.673 86.3156 116.066 86.2592 116.454 86.2592C116.745 86.2592 117.042 86.2973 117.344 86.3736C117.645 86.4498 117.915 86.5824 118.154 86.7713C118.396 86.9569 118.573 87.2171 118.686 87.5518C118.802 87.8833 118.819 88.3042 118.736 88.8146L117.871 94H116.986L117.19 92.7919H117.135C116.996 93.0173 116.803 93.236 116.558 93.4482C116.316 93.6603 116.026 93.8343 115.688 93.9702C115.35 94.1061 114.969 94.174 114.545 94.174ZM114.768 93.3636C115.239 93.3636 115.665 93.2592 116.046 93.0504C116.431 92.8416 116.745 92.5649 116.991 92.2202C117.239 91.8722 117.398 91.4893 117.468 91.0717L117.652 89.968C117.579 90.031 117.46 90.0874 117.294 90.1371C117.132 90.1868 116.948 90.2315 116.742 90.2713C116.54 90.3078 116.336 90.3393 116.131 90.3658C115.928 90.3923 115.75 90.4155 115.594 90.4354C115.153 90.4884 114.768 90.5713 114.44 90.6839C114.116 90.7966 113.855 90.9524 113.66 91.1513C113.464 91.3468 113.342 91.5987 113.292 91.907C113.216 92.371 113.317 92.7306 113.595 92.9858C113.877 93.2377 114.268 93.3636 114.768 93.3636ZM119.245 94L120.517 86.3636H121.378L121.179 87.5369H121.243C121.455 87.1525 121.772 86.8426 122.193 86.6072C122.617 86.3686 123.07 86.2493 123.55 86.2493C123.623 86.2493 123.704 86.2509 123.794 86.2543C123.883 86.2543 123.958 86.2576 124.017 86.2642L123.863 87.1641C123.824 87.1574 123.754 87.1475 123.655 87.1342C123.558 87.121 123.451 87.1143 123.331 87.1143C122.934 87.1143 122.566 87.1989 122.228 87.3679C121.893 87.5336 121.611 87.764 121.383 88.0589C121.157 88.3539 121.011 88.6903 120.945 89.0682L120.13 94H119.245ZM128.028 86.3636L127.903 87.1342H124.254L124.384 86.3636H128.028ZM125.82 84.5341H126.71L125.467 92.0064C125.414 92.3246 125.428 92.5748 125.507 92.7571C125.587 92.9361 125.709 93.0637 125.875 93.1399C126.041 93.2128 126.223 93.2493 126.422 93.2493C126.538 93.2493 126.637 93.2427 126.72 93.2294C126.806 93.2128 126.883 93.1963 126.949 93.1797L127.014 93.9801C126.917 94.0133 126.803 94.0431 126.67 94.0696C126.538 94.0994 126.379 94.1143 126.193 94.1143C125.868 94.1143 125.568 94.0431 125.293 93.9006C125.018 93.758 124.809 93.5459 124.667 93.2642C124.524 92.9825 124.486 92.6328 124.553 92.2152L125.82 84.5341ZM135.023 86.3636L134.899 87.1342H131.249L131.379 86.3636H135.023ZM132.815 84.5341H133.705L132.462 92.0064C132.409 92.3246 132.423 92.5748 132.502 92.7571C132.582 92.9361 132.704 93.0637 132.87 93.1399C133.036 93.2128 133.218 93.2493 133.417 93.2493C133.533 93.2493 133.632 93.2427 133.715 93.2294C133.801 93.2128 133.878 93.1963 133.944 93.1797L134.009 93.9801C133.912 94.0133 133.798 94.0431 133.666 94.0696C133.533 94.0994 133.374 94.1143 133.188 94.1143C132.863 94.1143 132.564 94.0431 132.288 93.9006C132.013 93.758 131.805 93.5459 131.662 93.2642C131.519 92.9825 131.481 92.6328 131.548 92.2152L132.815 84.5341ZM134.929 96.8636C134.753 96.8636 134.591 96.8471 134.442 96.8139C134.296 96.7808 134.182 96.7443 134.099 96.7045L134.472 95.924C134.75 96.0201 135.005 96.05 135.237 96.0135C135.473 95.9804 135.696 95.8677 135.908 95.6754C136.121 95.4832 136.329 95.1965 136.535 94.8153L136.952 94.0398L135.441 86.3636H136.361L137.554 92.8466H137.619L140.965 86.3636H141.964L137.266 95.1982C137.063 95.5793 136.84 95.8925 136.594 96.1378C136.353 96.383 136.091 96.5653 135.809 96.6847C135.531 96.804 135.237 96.8636 134.929 96.8636ZM140.965 96.8636L142.725 86.3636H143.585L143.347 87.8203H143.451C143.59 87.5916 143.771 87.3563 143.993 87.1143C144.218 86.8724 144.498 86.6702 144.833 86.5078C145.171 86.3421 145.575 86.2592 146.046 86.2592C146.676 86.2592 147.198 86.4233 147.612 86.7514C148.03 87.0795 148.321 87.5402 148.487 88.1335C148.656 88.7268 148.674 89.4162 148.542 90.2017C148.413 90.9905 148.166 91.6816 147.801 92.2749C147.437 92.8681 146.991 93.3305 146.464 93.6619C145.94 93.9934 145.367 94.1591 144.744 94.1591C144.283 94.1591 143.91 94.0762 143.625 93.9105C143.343 93.7448 143.128 93.541 142.979 93.299C142.83 93.0537 142.722 92.8151 142.655 92.5831H142.576L141.86 96.8636H140.965ZM142.964 90.1868C142.864 90.8033 142.864 91.3501 142.964 91.8274C143.063 92.3014 143.264 92.6742 143.565 92.946C143.867 93.2145 144.265 93.3487 144.758 93.3487C145.266 93.3487 145.718 93.2095 146.116 92.9311C146.513 92.6494 146.845 92.2699 147.11 91.7926C147.375 91.3153 147.557 90.7801 147.657 90.1868C147.75 89.6001 147.746 89.0715 147.647 88.6009C147.548 88.1302 147.349 87.7573 147.05 87.4822C146.752 87.2038 146.346 87.0646 145.832 87.0646C145.335 87.0646 144.888 87.1989 144.49 87.4673C144.096 87.7325 143.767 88.1004 143.506 88.571C143.244 89.0384 143.063 89.5769 142.964 90.1868ZM148.881 94L150.153 86.3636H151.043L149.77 94H148.881ZM150.919 85.0362C150.733 85.0362 150.576 84.9732 150.447 84.8473C150.321 84.7214 150.259 84.5689 150.263 84.3899C150.269 84.2209 150.337 84.075 150.467 83.9524C150.599 83.8265 150.755 83.7635 150.934 83.7635C151.119 83.7635 151.277 83.8281 151.406 83.9574C151.535 84.0833 151.597 84.2358 151.59 84.4148C151.587 84.5838 151.519 84.7296 151.386 84.8523C151.254 84.9749 151.098 85.0362 150.919 85.0362ZM152.806 89.2273L152.016 94H151.131L152.404 86.3636H153.264L153.065 87.5618H153.144C153.383 87.1707 153.713 86.8575 154.134 86.6222C154.558 86.3835 155.05 86.2642 155.61 86.2642C156.121 86.2642 156.552 86.3719 156.903 86.5874C157.258 86.7995 157.509 87.1127 157.659 87.527C157.811 87.9413 157.838 88.45 157.738 89.0533L156.908 94H156.023L156.838 89.108C156.941 88.4848 156.85 87.991 156.565 87.6264C156.283 87.2585 155.847 87.0746 155.257 87.0746C154.856 87.0746 154.483 87.1607 154.139 87.3331C153.797 87.5054 153.509 87.754 153.274 88.0788C153.038 88.4003 152.883 88.7831 152.806 89.2273ZM160.694 97.0227C160.174 97.0227 159.728 96.9548 159.357 96.8189C158.986 96.6863 158.684 96.504 158.452 96.272C158.223 96.04 158.056 95.7798 157.95 95.4915L158.755 95.0192C158.828 95.2114 158.939 95.4003 159.089 95.5859C159.238 95.7715 159.448 95.924 159.72 96.0433C159.992 96.166 160.348 96.2273 160.789 96.2273C161.462 96.2273 162.04 96.0566 162.524 95.7152C163.008 95.3771 163.309 94.8535 163.429 94.1442L163.697 92.424H163.618C163.482 92.656 163.299 92.888 163.071 93.12C162.842 93.3487 162.559 93.5393 162.221 93.6918C161.886 93.8442 161.49 93.9205 161.032 93.9205C160.423 93.9205 159.906 93.7696 159.481 93.468C159.057 93.1664 158.757 92.7356 158.581 92.1754C158.406 91.612 158.384 90.9408 158.517 90.1619C158.643 89.3897 158.885 88.7102 159.243 88.1236C159.604 87.5369 160.048 87.0795 160.575 86.7514C161.105 86.4233 161.685 86.2592 162.315 86.2592C162.782 86.2592 163.157 86.3421 163.439 86.5078C163.72 86.6702 163.934 86.8724 164.08 87.1143C164.229 87.3563 164.337 87.5916 164.403 87.8203H164.493L164.731 86.3636H165.596L164.304 94.1989C164.194 94.8452 163.969 95.3771 163.628 95.7947C163.286 96.2124 162.862 96.5206 162.355 96.7195C161.851 96.9216 161.298 97.0227 160.694 97.0227ZM161.231 93.1101C161.722 93.1101 162.163 92.9924 162.554 92.7571C162.948 92.5185 163.278 92.1787 163.543 91.7379C163.812 91.2938 163.996 90.7635 164.095 90.147C164.194 89.5504 164.189 89.0218 164.08 88.5611C163.974 88.0971 163.767 87.7325 163.459 87.4673C163.154 87.1989 162.753 87.0646 162.255 87.0646C161.742 87.0646 161.288 87.2022 160.893 87.4773C160.502 87.7524 160.179 88.1236 159.924 88.5909C159.672 89.0549 159.498 89.5736 159.402 90.147C159.309 90.7304 159.312 91.2457 159.412 91.6932C159.514 92.1373 159.717 92.4853 160.018 92.7372C160.32 92.9858 160.724 93.1101 161.231 93.1101ZM172.925 86.3636L172.8 87.1342H169.151L169.28 86.3636H172.925ZM170.717 84.5341H171.607L170.364 92.0064C170.311 92.3246 170.324 92.5748 170.404 92.7571C170.483 92.9361 170.606 93.0637 170.772 93.1399C170.938 93.2128 171.12 93.2493 171.319 93.2493C171.435 93.2493 171.534 93.2427 171.617 93.2294C171.703 93.2128 171.779 93.1963 171.846 93.1797L171.91 93.9801C171.814 94.0133 171.7 94.0431 171.567 94.0696C171.435 94.0994 171.276 94.1143 171.09 94.1143C170.765 94.1143 170.465 94.0431 170.19 93.9006C169.915 93.758 169.706 93.5459 169.564 93.2642C169.421 92.9825 169.383 92.6328 169.449 92.2152L170.717 84.5341ZM175.602 94.1591C174.933 94.1591 174.369 93.9901 173.912 93.652C173.455 93.3106 173.132 92.8383 172.943 92.2351C172.754 91.6319 172.722 90.9358 172.848 90.147C172.974 89.3781 173.224 88.7019 173.599 88.1186C173.977 87.532 174.441 87.0762 174.991 86.7514C175.541 86.4233 176.139 86.2592 176.786 86.2592C177.458 86.2592 178.022 86.4299 178.476 86.7713C178.933 87.1127 179.257 87.585 179.445 88.1882C179.638 88.7914 179.671 89.4891 179.545 90.2812C179.419 91.0469 179.167 91.7214 178.789 92.3047C178.411 92.8847 177.947 93.3388 177.397 93.6669C176.85 93.995 176.252 94.1591 175.602 94.1591ZM175.612 93.3487C176.156 93.3487 176.64 93.2045 177.064 92.9162C177.492 92.6245 177.845 92.2367 178.123 91.7528C178.401 91.2656 178.589 90.7304 178.685 90.147C178.774 89.5902 178.764 89.0781 178.655 88.6108C178.546 88.1435 178.335 87.7689 178.024 87.4872C177.712 87.2055 177.298 87.0646 176.781 87.0646C176.24 87.0646 175.757 87.2121 175.329 87.5071C174.901 87.7988 174.548 88.1899 174.27 88.6804C173.992 89.1676 173.806 89.7012 173.713 90.2812C173.62 90.8414 173.627 91.3535 173.733 91.8175C173.842 92.2815 174.053 92.6527 174.364 92.9311C174.679 93.2095 175.095 93.3487 175.612 93.3487ZM185.285 97.0227C184.764 97.0227 184.318 96.9548 183.947 96.8189C183.576 96.6863 183.274 96.504 183.042 96.272C182.814 96.04 182.646 95.7798 182.54 95.4915L183.346 95.0192C183.419 95.2114 183.53 95.4003 183.679 95.5859C183.828 95.7715 184.038 95.924 184.31 96.0433C184.582 96.166 184.938 96.2273 185.379 96.2273C186.052 96.2273 186.63 96.0566 187.114 95.7152C187.598 95.3771 187.9 94.8535 188.019 94.1442L188.287 92.424H188.208C188.072 92.656 187.89 92.888 187.661 93.12C187.432 93.3487 187.149 93.5393 186.811 93.6918C186.476 93.8442 186.08 93.9205 185.623 93.9205C185.013 93.9205 184.496 93.7696 184.072 93.468C183.647 93.1664 183.347 92.7356 183.172 92.1754C182.996 91.612 182.974 90.9408 183.107 90.1619C183.233 89.3897 183.475 88.7102 183.833 88.1236C184.194 87.5369 184.638 87.0795 185.165 86.7514C185.696 86.4233 186.276 86.2592 186.905 86.2592C187.373 86.2592 187.747 86.3421 188.029 86.5078C188.311 86.6702 188.524 86.8724 188.67 87.1143C188.819 87.3563 188.927 87.5916 188.993 87.8203H189.083L189.322 86.3636H190.187L188.894 94.1989C188.785 94.8452 188.559 95.3771 188.218 95.7947C187.876 96.2124 187.452 96.5206 186.945 96.7195C186.441 96.9216 185.888 97.0227 185.285 97.0227ZM185.822 93.1101C186.312 93.1101 186.753 92.9924 187.144 92.7571C187.538 92.5185 187.868 92.1787 188.133 91.7379C188.402 91.2938 188.586 90.7635 188.685 90.147C188.785 89.5504 188.78 89.0218 188.67 88.5611C188.564 88.0971 188.357 87.7325 188.049 87.4673C187.744 87.1989 187.343 87.0646 186.846 87.0646C186.332 87.0646 185.878 87.2022 185.483 87.4773C185.092 87.7524 184.769 88.1236 184.514 88.5909C184.262 89.0549 184.088 89.5736 183.992 90.147C183.899 90.7304 183.902 91.2457 184.002 91.6932C184.105 92.1373 184.307 92.4853 184.608 92.7372C184.91 92.9858 185.314 93.1101 185.822 93.1101ZM193.344 94.1591C192.632 94.1591 192.043 93.9934 191.579 93.6619C191.115 93.3272 190.79 92.8648 190.605 92.2749C190.419 91.6816 190.391 90.9988 190.52 90.2266C190.65 89.4576 190.905 88.7749 191.286 88.1783C191.667 87.5784 192.138 87.1094 192.698 86.7713C193.258 86.4299 193.866 86.2592 194.522 86.2592C194.937 86.2592 195.325 86.3355 195.686 86.4879C196.047 86.6371 196.354 86.8674 196.606 87.179C196.861 87.4872 197.038 87.8767 197.138 88.3473C197.237 88.8146 197.234 89.3681 197.128 90.0078L197.058 90.4453H191.092L191.216 89.6648H196.282C196.365 89.1742 196.342 88.7334 196.213 88.3423C196.084 87.9512 195.863 87.6413 195.552 87.4126C195.243 87.1806 194.861 87.0646 194.403 87.0646C193.936 87.0646 193.493 87.1955 193.076 87.4574C192.661 87.7192 192.31 88.0606 192.022 88.4815C191.737 88.8991 191.553 89.3449 191.47 89.8189L191.37 90.4055C191.264 91.0518 191.278 91.5938 191.41 92.0312C191.543 92.4654 191.783 92.7936 192.131 93.0156C192.479 93.2377 192.925 93.3487 193.468 93.3487C193.833 93.3487 194.163 93.2924 194.458 93.1797C194.753 93.067 195.01 92.9162 195.228 92.7273C195.447 92.535 195.623 92.3246 195.755 92.0959L196.546 92.3693C196.377 92.6908 196.138 92.9875 195.83 93.2592C195.525 93.531 195.162 93.7498 194.741 93.9155C194.324 94.0779 193.858 94.1591 193.344 94.1591ZM201.712 86.3636L201.588 87.1342H197.939L198.068 86.3636H201.712ZM199.505 84.5341H200.395L199.152 92.0064C199.099 92.3246 199.112 92.5748 199.191 92.7571C199.271 92.9361 199.394 93.0637 199.559 93.1399C199.725 93.2128 199.907 93.2493 200.106 93.2493C200.222 93.2493 200.322 93.2427 200.405 93.2294C200.491 93.2128 200.567 93.1963 200.633 93.1797L200.698 93.9801C200.602 94.0133 200.487 94.0431 200.355 94.0696C200.222 94.0994 200.063 94.1143 199.878 94.1143C199.553 94.1143 199.253 94.0431 198.978 93.9006C198.703 93.758 198.494 93.5459 198.351 93.2642C198.209 92.9825 198.171 92.6328 198.237 92.2152L199.505 84.5341ZM210.552 88.0391L209.701 88.2578C209.658 88.0291 209.579 87.8236 209.463 87.6413C209.35 87.4557 209.186 87.3099 208.971 87.2038C208.758 87.0945 208.48 87.0398 208.135 87.0398C207.618 87.0398 207.173 87.1657 206.798 87.4176C206.423 87.6662 206.205 87.9844 206.142 88.3722C206.089 88.697 206.157 88.9605 206.346 89.1626C206.538 89.3648 206.859 89.5239 207.31 89.6399L208.424 89.9233C209.04 90.0824 209.479 90.331 209.741 90.669C210.006 91.0071 210.097 91.4347 210.015 91.9517C209.942 92.3826 209.758 92.7637 209.463 93.0952C209.171 93.4266 208.797 93.6868 208.339 93.8757C207.885 94.0646 207.378 94.1591 206.818 94.1591C206.066 94.1591 205.474 93.9901 205.043 93.652C204.615 93.3139 204.387 92.8267 204.357 92.1903L205.247 91.9915C205.273 92.4422 205.428 92.7836 205.709 93.0156C205.994 93.2476 206.395 93.3636 206.912 93.3636C207.502 93.3636 207.998 93.2294 208.399 92.9609C208.8 92.6925 209.03 92.361 209.09 91.9666C209.146 91.6551 209.088 91.3965 208.916 91.1911C208.747 90.9856 208.459 90.8331 208.051 90.7337L206.863 90.4354C206.223 90.273 205.771 90.0194 205.505 89.6747C205.244 89.3267 205.156 88.8975 205.242 88.3871C205.312 87.9661 205.487 87.5966 205.769 87.2784C206.051 86.9602 206.407 86.7116 206.838 86.5327C207.269 86.3504 207.739 86.2592 208.25 86.2592C208.952 86.2592 209.488 86.4183 209.856 86.7365C210.223 87.0514 210.455 87.4856 210.552 88.0391ZM215.959 91.0817L216.749 86.3636H217.634L216.362 94H215.477L215.685 92.7322H215.621C215.382 93.1233 215.044 93.4498 214.607 93.7116C214.172 93.9702 213.675 94.0994 213.115 94.0994C212.628 94.0994 212.212 93.9934 211.867 93.7812C211.526 93.5658 211.282 93.2509 211.136 92.8366C210.991 92.4223 210.967 91.9136 211.067 91.3104L211.897 86.3636H212.782L211.967 91.2557C211.871 91.8523 211.967 92.3329 212.255 92.6974C212.547 93.0587 212.968 93.2393 213.518 93.2393C213.862 93.2393 214.207 93.1565 214.552 92.9908C214.9 92.825 215.201 92.5831 215.457 92.2649C215.715 91.9434 215.883 91.549 215.959 91.0817ZM220.16 97.0227C219.64 97.0227 219.194 96.9548 218.823 96.8189C218.452 96.6863 218.15 96.504 217.918 96.272C217.69 96.04 217.522 95.7798 217.416 95.4915L218.222 95.0192C218.294 95.2114 218.405 95.4003 218.555 95.5859C218.704 95.7715 218.914 95.924 219.186 96.0433C219.458 96.166 219.814 96.2273 220.255 96.2273C220.928 96.2273 221.506 96.0566 221.99 95.7152C222.474 95.3771 222.776 94.8535 222.895 94.1442L223.163 92.424H223.084C222.948 92.656 222.766 92.888 222.537 93.12C222.308 93.3487 222.025 93.5393 221.687 93.6918C221.352 93.8442 220.956 93.9205 220.499 93.9205C219.889 93.9205 219.372 93.7696 218.947 93.468C218.523 93.1664 218.223 92.7356 218.048 92.1754C217.872 91.612 217.85 90.9408 217.983 90.1619C218.109 89.3897 218.351 88.7102 218.709 88.1236C219.07 87.5369 219.514 87.0795 220.041 86.7514C220.571 86.4233 221.151 86.2592 221.781 86.2592C222.249 86.2592 222.623 86.3421 222.905 86.5078C223.187 86.6702 223.4 86.8724 223.546 87.1143C223.695 87.3563 223.803 87.5916 223.869 87.8203H223.959L224.197 86.3636H225.062L223.77 94.1989C223.66 94.8452 223.435 95.3771 223.094 95.7947C222.752 96.2124 222.328 96.5206 221.821 96.7195C221.317 96.9216 220.764 97.0227 220.16 97.0227ZM220.697 93.1101C221.188 93.1101 221.629 92.9924 222.02 92.7571C222.414 92.5185 222.744 92.1787 223.009 91.7379C223.278 91.2938 223.462 90.7635 223.561 90.147C223.66 89.5504 223.655 89.0218 223.546 88.5611C223.44 88.0971 223.233 87.7325 222.925 87.4673C222.62 87.1989 222.219 87.0646 221.722 87.0646C221.208 87.0646 220.754 87.2022 220.359 87.4773C219.968 87.7524 219.645 88.1236 219.39 88.5909C219.138 89.0549 218.964 89.5736 218.868 90.147C218.775 90.7304 218.778 91.2457 218.878 91.6932C218.981 92.1373 219.183 92.4853 219.484 92.7372C219.786 92.9858 220.19 93.1101 220.697 93.1101ZM227.589 97.0227C227.068 97.0227 226.623 96.9548 226.251 96.8189C225.88 96.6863 225.578 96.504 225.346 96.272C225.118 96.04 224.95 95.7798 224.844 95.4915L225.65 95.0192C225.723 95.2114 225.834 95.4003 225.983 95.5859C226.132 95.7715 226.342 95.924 226.614 96.0433C226.886 96.166 227.242 96.2273 227.683 96.2273C228.356 96.2273 228.934 96.0566 229.418 95.7152C229.902 95.3771 230.204 94.8535 230.323 94.1442L230.592 92.424H230.512C230.376 92.656 230.194 92.888 229.965 93.12C229.736 93.3487 229.453 93.5393 229.115 93.6918C228.78 93.8442 228.384 93.9205 227.927 93.9205C227.317 93.9205 226.8 93.7696 226.376 93.468C225.951 93.1664 225.651 92.7356 225.476 92.1754C225.3 91.612 225.279 90.9408 225.411 90.1619C225.537 89.3897 225.779 88.7102 226.137 88.1236C226.498 87.5369 226.942 87.0795 227.469 86.7514C228 86.4233 228.58 86.2592 229.209 86.2592C229.677 86.2592 230.051 86.3421 230.333 86.5078C230.615 86.6702 230.828 86.8724 230.974 87.1143C231.123 87.3563 231.231 87.5916 231.297 87.8203H231.387L231.626 86.3636H232.491L231.198 94.1989C231.089 94.8452 230.863 95.3771 230.522 95.7947C230.181 96.2124 229.756 96.5206 229.249 96.7195C228.745 96.9216 228.192 97.0227 227.589 97.0227ZM228.126 93.1101C228.616 93.1101 229.057 92.9924 229.448 92.7571C229.842 92.5185 230.172 92.1787 230.437 91.7379C230.706 91.2938 230.89 90.7635 230.989 90.147C231.089 89.5504 231.084 89.0218 230.974 88.5611C230.868 88.0971 230.661 87.7325 230.353 87.4673C230.048 87.1989 229.647 87.0646 229.15 87.0646C228.636 87.0646 228.182 87.2022 227.788 87.4773C227.396 87.7524 227.073 88.1236 226.818 88.5909C226.566 89.0549 226.392 89.5736 226.296 90.147C226.203 90.7304 226.207 91.2457 226.306 91.6932C226.409 92.1373 226.611 92.4853 226.913 92.7372C227.214 92.9858 227.618 93.1101 228.126 93.1101ZM235.648 94.1591C234.936 94.1591 234.347 93.9934 233.883 93.6619C233.419 93.3272 233.095 92.8648 232.909 92.2749C232.723 91.6816 232.695 90.9988 232.824 90.2266C232.954 89.4576 233.209 88.7749 233.59 88.1783C233.971 87.5784 234.442 87.1094 235.002 86.7713C235.562 86.4299 236.17 86.2592 236.827 86.2592C237.241 86.2592 237.629 86.3355 237.99 86.4879C238.351 86.6371 238.658 86.8674 238.91 87.179C239.165 87.4872 239.342 87.8767 239.442 88.3473C239.541 88.8146 239.538 89.3681 239.432 90.0078L239.362 90.4453H233.396L233.52 89.6648H238.586C238.669 89.1742 238.646 88.7334 238.517 88.3423C238.388 87.9512 238.167 87.6413 237.856 87.4126C237.547 87.1806 237.165 87.0646 236.707 87.0646C236.24 87.0646 235.797 87.1955 235.38 87.4574C234.965 87.7192 234.614 88.0606 234.326 88.4815C234.041 88.8991 233.857 89.3449 233.774 89.8189L233.675 90.4055C233.568 91.0518 233.582 91.5938 233.714 92.0312C233.847 92.4654 234.087 92.7936 234.435 93.0156C234.783 93.2377 235.229 93.3487 235.773 93.3487C236.137 93.3487 236.467 93.2924 236.762 93.1797C237.057 93.067 237.314 92.9162 237.532 92.7273C237.751 92.535 237.927 92.3246 238.059 92.0959L238.85 92.3693C238.681 92.6908 238.442 92.9875 238.134 93.2592C237.829 93.531 237.466 93.7498 237.045 93.9155C236.628 94.0779 236.162 94.1591 235.648 94.1591ZM245.861 88.0391L245.01 88.2578C244.967 88.0291 244.888 87.8236 244.772 87.6413C244.659 87.4557 244.495 87.3099 244.28 87.2038C244.067 87.0945 243.789 87.0398 243.444 87.0398C242.927 87.0398 242.482 87.1657 242.107 87.4176C241.732 87.6662 241.514 87.9844 241.451 88.3722C241.398 88.697 241.466 88.9605 241.655 89.1626C241.847 89.3648 242.168 89.5239 242.619 89.6399L243.733 89.9233C244.349 90.0824 244.788 90.331 245.05 90.669C245.315 91.0071 245.406 91.4347 245.324 91.9517C245.251 92.3826 245.067 92.7637 244.772 93.0952C244.48 93.4266 244.106 93.6868 243.648 93.8757C243.194 94.0646 242.687 94.1591 242.127 94.1591C241.375 94.1591 240.783 93.9901 240.352 93.652C239.924 93.3139 239.696 92.8267 239.666 92.1903L240.556 91.9915C240.582 92.4422 240.737 92.7836 241.018 93.0156C241.303 93.2476 241.704 93.3636 242.221 93.3636C242.811 93.3636 243.307 93.2294 243.708 92.9609C244.109 92.6925 244.339 92.361 244.399 91.9666C244.455 91.6551 244.397 91.3965 244.225 91.1911C244.056 90.9856 243.768 90.8331 243.36 90.7337L242.172 90.4354C241.532 90.273 241.08 90.0194 240.814 89.6747C240.553 89.3267 240.465 88.8975 240.551 88.3871C240.621 87.9661 240.796 87.5966 241.078 87.2784C241.36 86.9602 241.716 86.7116 242.147 86.5327C242.578 86.3504 243.048 86.2592 243.559 86.2592C244.261 86.2592 244.797 86.4183 245.165 86.7365C245.532 87.0514 245.764 87.4856 245.861 88.0391ZM250.214 86.3636L250.09 87.1342H246.44L246.57 86.3636H250.214ZM248.006 84.5341H248.896L247.653 92.0064C247.6 92.3246 247.614 92.5748 247.693 92.7571C247.773 92.9361 247.895 93.0637 248.061 93.1399C248.227 93.2128 248.409 93.2493 248.608 93.2493C248.724 93.2493 248.823 93.2427 248.906 93.2294C248.992 93.2128 249.069 93.1963 249.135 93.1797L249.2 93.9801C249.103 94.0133 248.989 94.0431 248.857 94.0696C248.724 94.0994 248.565 94.1143 248.379 94.1143C248.054 94.1143 247.755 94.0431 247.479 93.9006C247.204 93.758 246.996 93.5459 246.853 93.2642C246.711 92.9825 246.672 92.6328 246.739 92.2152L248.006 84.5341ZM249.981 94L251.254 86.3636H252.143L250.871 94H249.981ZM252.019 85.0362C251.834 85.0362 251.676 84.9732 251.547 84.8473C251.421 84.7214 251.36 84.5689 251.363 84.3899C251.37 84.2209 251.437 84.075 251.567 83.9524C251.699 83.8265 251.855 83.7635 252.034 83.7635C252.22 83.7635 252.377 83.8281 252.506 83.9574C252.636 84.0833 252.697 84.2358 252.69 84.4148C252.687 84.5838 252.619 84.7296 252.486 84.8523C252.354 84.9749 252.198 85.0362 252.019 85.0362ZM255.234 94.1591C254.564 94.1591 254.001 93.9901 253.544 93.652C253.086 93.3106 252.763 92.8383 252.574 92.2351C252.385 91.6319 252.354 90.9358 252.48 90.147C252.606 89.3781 252.856 88.7019 253.23 88.1186C253.608 87.532 254.072 87.0762 254.622 86.7514C255.173 86.4233 255.771 86.2592 256.417 86.2592C257.09 86.2592 257.653 86.4299 258.108 86.7713C258.565 87.1127 258.888 87.585 259.077 88.1882C259.269 88.7914 259.302 89.4891 259.176 90.2812C259.05 91.0469 258.799 91.7214 258.421 92.3047C258.043 92.8847 257.579 93.3388 257.029 93.6669C256.482 93.995 255.884 94.1591 255.234 94.1591ZM255.244 93.3487C255.787 93.3487 256.271 93.2045 256.696 92.9162C257.123 92.6245 257.476 92.2367 257.755 91.7528C258.033 91.2656 258.22 90.7304 258.316 90.147C258.406 89.5902 258.396 89.0781 258.287 88.6108C258.177 88.1435 257.967 87.7689 257.655 87.4872C257.344 87.2055 256.929 87.0646 256.412 87.0646C255.872 87.0646 255.388 87.2121 254.961 87.5071C254.533 87.7988 254.18 88.1899 253.902 88.6804C253.623 89.1676 253.438 89.7012 253.345 90.2812C253.252 90.8414 253.259 91.3535 253.365 91.8175C253.474 92.2815 253.684 92.6527 253.996 92.9311C254.311 93.2095 254.727 93.3487 255.244 93.3487ZM261.198 89.2273L260.408 94H259.523L260.795 86.3636H261.655L261.457 87.5618H261.536C261.775 87.1707 262.105 86.8575 262.525 86.6222C262.95 86.3835 263.442 86.2642 264.002 86.2642C264.512 86.2642 264.943 86.3719 265.295 86.5874C265.649 86.7995 265.901 87.1127 266.05 87.527C266.203 87.9413 266.229 88.45 266.13 89.0533L265.3 94H264.415L265.23 89.108C265.333 88.4848 265.242 87.991 264.957 87.6264C264.675 87.2585 264.239 87.0746 263.649 87.0746C263.248 87.0746 262.875 87.1607 262.53 87.3331C262.189 87.5054 261.901 87.754 261.665 88.0788C261.43 88.4003 261.274 88.7831 261.198 89.2273Z" fill="#808080" fill-opacity="0.25"/>
<rect x="92" y="129" width="137" height="24" rx="7" fill="#2D4EA2"/>
<rect x="133" y="132" width="93" height="18" rx="7" fill="#D9D9D9"/>
<path d="M98.3672 146H97.3928L101.097 135.818H102.091L105.795 146H104.82L101.629 137.026H101.559L98.3672 146ZM99.0682 142.097H104.119V142.933H99.0682V142.097ZM106.376 146V138.364H107.236V139.537H107.301C107.453 139.152 107.718 138.843 108.096 138.607C108.477 138.369 108.908 138.249 109.389 138.249C109.462 138.249 109.543 138.251 109.632 138.254C109.722 138.258 109.796 138.261 109.856 138.264V139.164C109.816 139.157 109.747 139.147 109.647 139.134C109.548 139.121 109.44 139.114 109.324 139.114C108.926 139.114 108.572 139.199 108.26 139.368C107.952 139.534 107.708 139.764 107.529 140.059C107.35 140.354 107.261 140.69 107.261 141.068V146H106.376ZM113.872 138.364V139.134H110.228V138.364H113.872ZM111.367 136.534H112.257V144.006C112.257 144.325 112.311 144.575 112.421 144.757C112.53 144.936 112.673 145.064 112.848 145.14C113.024 145.213 113.211 145.249 113.41 145.249C113.526 145.249 113.625 145.243 113.708 145.229C113.791 145.213 113.864 145.196 113.927 145.18L114.116 145.98C114.03 146.013 113.924 146.043 113.798 146.07C113.672 146.099 113.516 146.114 113.33 146.114C113.006 146.114 112.692 146.043 112.391 145.901C112.093 145.758 111.847 145.546 111.655 145.264C111.463 144.982 111.367 144.633 111.367 144.215V136.534ZM114.912 146V138.364H115.802V146H114.912ZM115.365 137.051C115.182 137.051 115.026 136.99 114.897 136.867C114.768 136.741 114.703 136.59 114.703 136.415C114.703 136.239 114.768 136.09 114.897 135.967C115.026 135.841 115.182 135.778 115.365 135.778C115.547 135.778 115.703 135.841 115.832 135.967C115.961 136.09 116.026 136.239 116.026 136.415C116.026 136.59 115.961 136.741 115.832 136.867C115.703 136.99 115.547 137.051 115.365 137.051ZM122.293 140.039L121.483 140.268C121.403 140.039 121.29 139.832 121.145 139.646C120.999 139.461 120.808 139.313 120.573 139.204C120.341 139.094 120.053 139.04 119.708 139.04C119.191 139.04 118.767 139.162 118.435 139.408C118.104 139.653 117.938 139.969 117.938 140.357C117.938 140.685 118.051 140.952 118.276 141.158C118.505 141.36 118.856 141.521 119.33 141.64L120.483 141.923C121.123 142.079 121.602 142.326 121.92 142.664C122.242 143.002 122.402 143.426 122.402 143.937C122.402 144.368 122.283 144.75 122.044 145.085C121.806 145.42 121.473 145.683 121.045 145.876C120.621 146.065 120.129 146.159 119.569 146.159C118.823 146.159 118.208 145.992 117.724 145.657C117.24 145.319 116.93 144.832 116.794 144.195L117.645 143.987C117.754 144.441 117.968 144.784 118.286 145.016C118.607 145.248 119.03 145.364 119.554 145.364C120.14 145.364 120.609 145.233 120.961 144.971C121.312 144.706 121.488 144.374 121.488 143.977C121.488 143.668 121.385 143.41 121.179 143.201C120.974 142.989 120.662 142.833 120.245 142.734L118.997 142.435C118.334 142.276 117.843 142.024 117.525 141.68C117.207 141.335 117.048 140.907 117.048 140.397C117.048 139.976 117.162 139.607 117.391 139.288C117.62 138.967 117.935 138.715 118.336 138.533C118.737 138.35 119.194 138.259 119.708 138.259C120.407 138.259 120.966 138.418 121.383 138.737C121.804 139.051 122.107 139.486 122.293 140.039ZM126.368 138.364V139.134H122.724V138.364H126.368ZM123.862 136.534H124.752V144.006C124.752 144.325 124.807 144.575 124.916 144.757C125.026 144.936 125.168 145.064 125.344 145.14C125.519 145.213 125.707 145.249 125.906 145.249C126.022 145.249 126.121 145.243 126.204 145.229C126.287 145.213 126.36 145.196 126.423 145.18L126.612 145.98C126.525 146.013 126.419 146.043 126.293 146.07C126.167 146.099 126.012 146.114 125.826 146.114C125.501 146.114 125.188 146.043 124.886 145.901C124.588 145.758 124.343 145.546 124.151 145.264C123.958 144.982 123.862 144.633 123.862 144.215V136.534ZM128.104 145.806C127.908 145.806 127.739 145.737 127.597 145.597C127.457 145.458 127.388 145.289 127.388 145.09C127.388 144.895 127.457 144.727 127.597 144.588C127.739 144.446 127.908 144.374 128.104 144.374C128.303 144.374 128.472 144.446 128.611 144.588C128.75 144.727 128.82 144.895 128.82 145.09C128.82 145.223 128.786 145.344 128.72 145.453C128.657 145.559 128.571 145.645 128.462 145.712C128.356 145.775 128.236 145.806 128.104 145.806ZM128.104 140.298C127.908 140.298 127.739 140.228 127.597 140.089C127.457 139.95 127.388 139.781 127.388 139.582C127.388 139.386 127.457 139.219 127.597 139.08C127.739 138.937 127.908 138.866 128.104 138.866C128.303 138.866 128.472 138.937 128.611 139.08C128.75 139.219 128.82 139.386 128.82 139.582C128.82 139.714 128.786 139.835 128.72 139.945C128.657 140.051 128.571 140.137 128.462 140.203C128.356 140.266 128.236 140.298 128.104 140.298Z" fill="white"/>
<path d="M136.73 139.895V139.075H142.393V139.895H136.73ZM136.73 142.744V141.923H142.393V142.744H136.73Z" fill="#202020" fill-opacity="0.25"/>
<path d="M143.795 146H142.821L146.525 135.818H147.519L151.223 146H150.249L147.057 137.026H146.987L143.795 146ZM144.496 142.097H149.548V142.933H144.496V142.097ZM160.474 138.364C160.418 137.797 160.167 137.346 159.723 137.011C159.279 136.677 158.721 136.509 158.048 136.509C157.574 136.509 157.156 136.59 156.795 136.753C156.437 136.915 156.155 137.141 155.95 137.429C155.748 137.714 155.646 138.039 155.646 138.403C155.646 138.672 155.704 138.907 155.82 139.109C155.936 139.312 156.092 139.486 156.288 139.631C156.487 139.774 156.705 139.897 156.944 139.999C157.186 140.102 157.43 140.188 157.675 140.258L158.749 140.566C159.074 140.656 159.398 140.77 159.723 140.909C160.048 141.048 160.345 141.224 160.613 141.436C160.885 141.645 161.102 141.902 161.264 142.207C161.43 142.508 161.513 142.871 161.513 143.295C161.513 143.839 161.372 144.328 161.09 144.762C160.809 145.196 160.404 145.541 159.877 145.796C159.35 146.048 158.719 146.174 157.983 146.174C157.29 146.174 156.689 146.06 156.178 145.831C155.668 145.599 155.267 145.279 154.975 144.871C154.684 144.464 154.52 143.991 154.483 143.455H155.438C155.471 143.856 155.603 144.195 155.835 144.474C156.067 144.752 156.369 144.964 156.74 145.11C157.111 145.253 157.526 145.324 157.983 145.324C158.49 145.324 158.941 145.239 159.335 145.07C159.733 144.898 160.045 144.659 160.27 144.354C160.499 144.046 160.613 143.688 160.613 143.281C160.613 142.936 160.524 142.647 160.345 142.415C160.166 142.18 159.915 141.983 159.594 141.824C159.276 141.665 158.906 141.524 158.485 141.401L157.267 141.043C156.468 140.805 155.849 140.475 155.408 140.054C154.967 139.633 154.747 139.096 154.747 138.443C154.747 137.896 154.892 137.416 155.184 137.001C155.479 136.584 155.877 136.259 156.377 136.027C156.881 135.792 157.446 135.674 158.073 135.674C158.706 135.674 159.266 135.79 159.753 136.022C160.24 136.254 160.626 136.574 160.911 136.982C161.2 137.386 161.354 137.847 161.374 138.364H160.474ZM167.438 143.082V138.364H168.323V146H167.438V144.732H167.369C167.19 145.123 166.907 145.45 166.519 145.712C166.131 145.97 165.657 146.099 165.097 146.099C164.61 146.099 164.177 145.993 163.799 145.781C163.421 145.566 163.125 145.251 162.909 144.837C162.694 144.422 162.586 143.914 162.586 143.31V138.364H163.471V143.256C163.471 143.852 163.647 144.333 163.998 144.697C164.349 145.059 164.8 145.239 165.35 145.239C165.695 145.239 166.027 145.156 166.345 144.991C166.663 144.825 166.925 144.583 167.13 144.265C167.336 143.943 167.438 143.549 167.438 143.082ZM169.686 148.864V138.364H170.546V139.82H170.651C170.757 139.592 170.903 139.358 171.088 139.119C171.274 138.877 171.519 138.674 171.824 138.508C172.132 138.342 172.52 138.259 172.987 138.259C173.617 138.259 174.167 138.425 174.638 138.756C175.112 139.085 175.48 139.545 175.742 140.138C176.007 140.728 176.139 141.416 176.139 142.202C176.139 142.991 176.007 143.682 175.742 144.275C175.48 144.868 175.112 145.33 174.638 145.662C174.167 145.993 173.62 146.159 172.997 146.159C172.537 146.159 172.151 146.076 171.839 145.911C171.531 145.745 171.281 145.541 171.088 145.299C170.899 145.054 170.754 144.815 170.651 144.583H170.571V148.864H169.686ZM170.561 142.187C170.561 142.803 170.652 143.35 170.835 143.827C171.02 144.301 171.285 144.674 171.63 144.946C171.978 145.214 172.399 145.349 172.893 145.349C173.4 145.349 173.828 145.21 174.176 144.931C174.527 144.649 174.794 144.27 174.976 143.793C175.162 143.315 175.254 142.78 175.254 142.187C175.254 141.6 175.163 141.071 174.981 140.601C174.802 140.13 174.537 139.757 174.186 139.482C173.834 139.204 173.403 139.065 172.893 139.065C172.396 139.065 171.973 139.199 171.625 139.467C171.277 139.732 171.012 140.1 170.83 140.571C170.651 141.038 170.561 141.577 170.561 142.187ZM180.188 146.159C179.476 146.159 178.859 145.993 178.339 145.662C177.818 145.327 177.416 144.865 177.131 144.275C176.849 143.682 176.708 142.999 176.708 142.227C176.708 141.458 176.849 140.775 177.131 140.178C177.416 139.578 177.808 139.109 178.309 138.771C178.813 138.43 179.394 138.259 180.054 138.259C180.468 138.259 180.868 138.335 181.252 138.488C181.637 138.637 181.981 138.867 182.286 139.179C182.594 139.487 182.838 139.877 183.017 140.347C183.196 140.815 183.285 141.368 183.285 142.008V142.445H177.32V141.665H182.381C182.381 141.174 182.281 140.733 182.082 140.342C181.887 139.948 181.613 139.636 181.262 139.408C180.914 139.179 180.511 139.065 180.054 139.065C179.57 139.065 179.144 139.194 178.776 139.452C178.408 139.711 178.12 140.052 177.911 140.477C177.706 140.901 177.601 141.365 177.598 141.869V142.336C177.598 142.942 177.702 143.473 177.911 143.927C178.123 144.378 178.423 144.727 178.811 144.976C179.199 145.224 179.658 145.349 180.188 145.349C180.549 145.349 180.866 145.292 181.138 145.18C181.413 145.067 181.643 144.916 181.829 144.727C182.018 144.535 182.16 144.325 182.256 144.096L183.097 144.369C182.981 144.691 182.79 144.987 182.525 145.259C182.263 145.531 181.935 145.75 181.54 145.915C181.149 146.078 180.699 146.159 180.188 146.159ZM184.256 146V138.364H185.116V139.537H185.18C185.333 139.152 185.598 138.843 185.976 138.607C186.357 138.369 186.788 138.249 187.268 138.249C187.341 138.249 187.422 138.251 187.512 138.254C187.601 138.258 187.676 138.261 187.736 138.264V139.164C187.696 139.157 187.626 139.147 187.527 139.134C187.427 139.121 187.32 139.114 187.204 139.114C186.806 139.114 186.451 139.199 186.14 139.368C185.832 139.534 185.588 139.764 185.409 140.059C185.23 140.354 185.141 140.69 185.141 141.068V146H184.256ZM191.422 146H190.448L194.152 135.818H195.146L198.85 146H197.875L194.684 137.026H194.614L191.422 146ZM192.123 142.097H197.174V142.933H192.123V142.097ZM199.431 146V138.364H200.291V139.537H200.356C200.508 139.152 200.773 138.843 201.151 138.607C201.532 138.369 201.963 138.249 202.444 138.249C202.517 138.249 202.598 138.251 202.687 138.254C202.777 138.258 202.851 138.261 202.911 138.264V139.164C202.871 139.157 202.802 139.147 202.702 139.134C202.603 139.121 202.495 139.114 202.379 139.114C201.981 139.114 201.627 139.199 201.315 139.368C201.007 139.534 200.763 139.764 200.584 140.059C200.405 140.354 200.316 140.69 200.316 141.068V146H199.431ZM206.927 138.364V139.134H203.283V138.364H206.927ZM204.422 136.534H205.312V144.006C205.312 144.325 205.366 144.575 205.476 144.757C205.585 144.936 205.728 145.064 205.903 145.14C206.079 145.213 206.266 145.249 206.465 145.249C206.581 145.249 206.68 145.243 206.763 145.229C206.846 145.213 206.919 145.196 206.982 145.18L207.171 145.98C207.085 146.013 206.979 146.043 206.853 146.07C206.727 146.099 206.571 146.114 206.385 146.114C206.061 146.114 205.747 146.043 205.446 145.901C205.148 145.758 204.902 145.546 204.71 145.264C204.518 144.982 204.422 144.633 204.422 144.215V136.534ZM207.967 146V138.364H208.857V146H207.967ZM208.42 137.051C208.237 137.051 208.081 136.99 207.952 136.867C207.823 136.741 207.758 136.59 207.758 136.415C207.758 136.239 207.823 136.09 207.952 135.967C208.081 135.841 208.237 135.778 208.42 135.778C208.602 135.778 208.758 135.841 208.887 135.967C209.016 136.09 209.081 136.239 209.081 136.415C209.081 136.59 209.016 136.741 208.887 136.867C208.758 136.99 208.602 137.051 208.42 137.051ZM215.348 140.039L214.538 140.268C214.458 140.039 214.345 139.832 214.2 139.646C214.054 139.461 213.863 139.313 213.628 139.204C213.396 139.094 213.108 139.04 212.763 139.04C212.246 139.04 211.822 139.162 211.49 139.408C211.159 139.653 210.993 139.969 210.993 140.357C210.993 140.685 211.106 140.952 211.331 141.158C211.56 141.36 211.911 141.521 212.385 141.64L213.538 141.923C214.178 142.079 214.657 142.326 214.975 142.664C215.297 143.002 215.457 143.426 215.457 143.937C215.457 144.368 215.338 144.75 215.099 145.085C214.861 145.42 214.528 145.683 214.1 145.876C213.676 146.065 213.184 146.159 212.624 146.159C211.878 146.159 211.263 145.992 210.779 145.657C210.295 145.319 209.985 144.832 209.849 144.195L210.7 143.987C210.809 144.441 211.023 144.784 211.341 145.016C211.662 145.248 212.085 145.364 212.609 145.364C213.195 145.364 213.664 145.233 214.016 144.971C214.367 144.706 214.543 144.374 214.543 143.977C214.543 143.668 214.44 143.41 214.234 143.201C214.029 142.989 213.717 142.833 213.3 142.734L212.052 142.435C211.389 142.276 210.898 142.024 210.58 141.68C210.262 141.335 210.103 140.907 210.103 140.397C210.103 139.976 210.217 139.607 210.446 139.288C210.675 138.967 210.99 138.715 211.391 138.533C211.792 138.35 212.249 138.259 212.763 138.259C213.462 138.259 214.021 138.418 214.438 138.737C214.859 139.051 215.162 139.486 215.348 140.039ZM219.423 138.364V139.134H215.779V138.364H219.423ZM216.917 136.534H217.807V144.006C217.807 144.325 217.862 144.575 217.971 144.757C218.081 144.936 218.223 145.064 218.399 145.14C218.574 145.213 218.762 145.249 218.961 145.249C219.077 145.249 219.176 145.243 219.259 145.229C219.342 145.213 219.415 145.196 219.478 145.18L219.667 145.98C219.58 146.013 219.474 146.043 219.348 146.07C219.222 146.099 219.067 146.114 218.881 146.114C218.556 146.114 218.243 146.043 217.941 145.901C217.643 145.758 217.398 145.546 217.206 145.264C217.013 144.982 216.917 144.633 216.917 144.215V136.534Z" fill="#202020"/>
<rect x="92" y="158" width="114" height="24" rx="7" fill="#2D4EA2"/>
<rect x="133" y="161" width="70" height="18" rx="7" fill="#D9D9D9"/>
<path d="M98.3672 175H97.3928L101.097 164.818H102.091L105.795 175H104.82L101.629 166.026H101.559L98.3672 175ZM99.0682 171.097H104.119V171.933H99.0682V171.097ZM106.376 175V167.364H107.236V168.537H107.301C107.453 168.152 107.718 167.843 108.096 167.607C108.477 167.369 108.908 167.249 109.389 167.249C109.462 167.249 109.543 167.251 109.632 167.254C109.722 167.258 109.796 167.261 109.856 167.264V168.164C109.816 168.157 109.747 168.147 109.647 168.134C109.548 168.121 109.44 168.114 109.324 168.114C108.926 168.114 108.572 168.199 108.26 168.368C107.952 168.534 107.708 168.764 107.529 169.059C107.35 169.354 107.261 169.69 107.261 170.068V175H106.376ZM113.872 167.364V168.134H110.228V167.364H113.872ZM111.367 165.534H112.257V173.006C112.257 173.325 112.311 173.575 112.421 173.757C112.53 173.936 112.673 174.064 112.848 174.14C113.024 174.213 113.211 174.249 113.41 174.249C113.526 174.249 113.625 174.243 113.708 174.229C113.791 174.213 113.864 174.196 113.927 174.18L114.116 174.98C114.03 175.013 113.924 175.043 113.798 175.07C113.672 175.099 113.516 175.114 113.33 175.114C113.006 175.114 112.692 175.043 112.391 174.901C112.093 174.758 111.847 174.546 111.655 174.264C111.463 173.982 111.367 173.633 111.367 173.215V165.534ZM114.912 175V167.364H115.802V175H114.912ZM115.365 166.051C115.182 166.051 115.026 165.99 114.897 165.867C114.768 165.741 114.703 165.59 114.703 165.415C114.703 165.239 114.768 165.09 114.897 164.967C115.026 164.841 115.182 164.778 115.365 164.778C115.547 164.778 115.703 164.841 115.832 164.967C115.961 165.09 116.026 165.239 116.026 165.415C116.026 165.59 115.961 165.741 115.832 165.867C115.703 165.99 115.547 166.051 115.365 166.051ZM122.293 169.039L121.483 169.268C121.403 169.039 121.29 168.832 121.145 168.646C120.999 168.461 120.808 168.313 120.573 168.204C120.341 168.094 120.053 168.04 119.708 168.04C119.191 168.04 118.767 168.162 118.435 168.408C118.104 168.653 117.938 168.969 117.938 169.357C117.938 169.685 118.051 169.952 118.276 170.158C118.505 170.36 118.856 170.521 119.33 170.64L120.483 170.923C121.123 171.079 121.602 171.326 121.92 171.664C122.242 172.002 122.402 172.426 122.402 172.937C122.402 173.368 122.283 173.75 122.044 174.085C121.806 174.42 121.473 174.683 121.045 174.876C120.621 175.065 120.129 175.159 119.569 175.159C118.823 175.159 118.208 174.992 117.724 174.657C117.24 174.319 116.93 173.832 116.794 173.195L117.645 172.987C117.754 173.441 117.968 173.784 118.286 174.016C118.607 174.248 119.03 174.364 119.554 174.364C120.14 174.364 120.609 174.233 120.961 173.971C121.312 173.706 121.488 173.374 121.488 172.977C121.488 172.668 121.385 172.41 121.179 172.201C120.974 171.989 120.662 171.833 120.245 171.734L118.997 171.435C118.334 171.276 117.843 171.024 117.525 170.68C117.207 170.335 117.048 169.907 117.048 169.397C117.048 168.976 117.162 168.607 117.391 168.288C117.62 167.967 117.935 167.715 118.336 167.533C118.737 167.35 119.194 167.259 119.708 167.259C120.407 167.259 120.966 167.418 121.383 167.737C121.804 168.051 122.107 168.486 122.293 169.039ZM126.368 167.364V168.134H122.724V167.364H126.368ZM123.862 165.534H124.752V173.006C124.752 173.325 124.807 173.575 124.916 173.757C125.026 173.936 125.168 174.064 125.344 174.14C125.519 174.213 125.707 174.249 125.906 174.249C126.022 174.249 126.121 174.243 126.204 174.229C126.287 174.213 126.36 174.196 126.423 174.18L126.612 174.98C126.525 175.013 126.419 175.043 126.293 175.07C126.167 175.099 126.012 175.114 125.826 175.114C125.501 175.114 125.188 175.043 124.886 174.901C124.588 174.758 124.343 174.546 124.151 174.264C123.958 173.982 123.862 173.633 123.862 173.215V165.534ZM128.104 174.806C127.908 174.806 127.739 174.737 127.597 174.597C127.457 174.458 127.388 174.289 127.388 174.09C127.388 173.895 127.457 173.727 127.597 173.588C127.739 173.446 127.908 173.374 128.104 173.374C128.303 173.374 128.472 173.446 128.611 173.588C128.75 173.727 128.82 173.895 128.82 174.09C128.82 174.223 128.786 174.344 128.72 174.453C128.657 174.559 128.571 174.645 128.462 174.712C128.356 174.775 128.236 174.806 128.104 174.806ZM128.104 169.298C127.908 169.298 127.739 169.228 127.597 169.089C127.457 168.95 127.388 168.781 127.388 168.582C127.388 168.386 127.457 168.219 127.597 168.08C127.739 167.937 127.908 167.866 128.104 167.866C128.303 167.866 128.472 167.937 128.611 168.08C128.75 168.219 128.82 168.386 128.82 168.582C128.82 168.714 128.786 168.835 128.72 168.945C128.657 169.051 128.571 169.137 128.462 169.203C128.356 169.266 128.236 169.298 128.104 169.298Z" fill="white"/>
<path d="M141.299 169.039L140.489 169.268C140.409 169.039 140.296 168.832 140.151 168.646C140.005 168.461 139.814 168.313 139.579 168.204C139.347 168.094 139.058 168.04 138.714 168.04C138.197 168.04 137.772 168.162 137.441 168.408C137.11 168.653 136.944 168.969 136.944 169.357C136.944 169.685 137.057 169.952 137.282 170.158C137.511 170.36 137.862 170.521 138.336 170.64L139.489 170.923C140.129 171.079 140.608 171.326 140.926 171.664C141.248 172.002 141.408 172.426 141.408 172.937C141.408 173.368 141.289 173.75 141.05 174.085C140.812 174.42 140.479 174.683 140.051 174.876C139.627 175.065 139.135 175.159 138.575 175.159C137.829 175.159 137.214 174.992 136.73 174.657C136.246 174.319 135.936 173.832 135.8 173.195L136.651 172.987C136.76 173.441 136.974 173.784 137.292 174.016C137.613 174.248 138.036 174.364 138.56 174.364C139.146 174.364 139.615 174.233 139.967 173.971C140.318 173.706 140.494 173.374 140.494 172.977C140.494 172.668 140.391 172.41 140.185 172.201C139.98 171.989 139.668 171.833 139.251 171.734L138.003 171.435C137.34 171.276 136.849 171.024 136.531 170.68C136.213 170.335 136.054 169.907 136.054 169.397C136.054 168.976 136.168 168.607 136.397 168.288C136.626 167.967 136.941 167.715 137.342 167.533C137.743 167.35 138.2 167.259 138.714 167.259C139.413 167.259 139.972 167.418 140.389 167.737C140.81 168.051 141.113 168.486 141.299 169.039ZM147.218 172.082V167.364H148.103V175H147.218V173.732H147.149C146.97 174.123 146.686 174.45 146.299 174.712C145.911 174.97 145.437 175.099 144.877 175.099C144.389 175.099 143.957 174.993 143.579 174.781C143.201 174.566 142.905 174.251 142.689 173.837C142.474 173.422 142.366 172.914 142.366 172.31V167.364H143.251V172.256C143.251 172.852 143.427 173.333 143.778 173.697C144.129 174.059 144.58 174.239 145.13 174.239C145.475 174.239 145.806 174.156 146.125 173.991C146.443 173.825 146.705 173.583 146.91 173.265C147.116 172.943 147.218 172.549 147.218 172.082ZM149.466 177.864V167.364H150.326V168.82H150.431C150.537 168.592 150.683 168.358 150.868 168.119C151.054 167.877 151.299 167.674 151.604 167.508C151.912 167.342 152.3 167.259 152.767 167.259C153.397 167.259 153.947 167.425 154.418 167.756C154.892 168.085 155.26 168.545 155.522 169.138C155.787 169.728 155.919 170.416 155.919 171.202C155.919 171.991 155.787 172.682 155.522 173.275C155.26 173.868 154.892 174.33 154.418 174.662C153.947 174.993 153.4 175.159 152.777 175.159C152.317 175.159 151.93 175.076 151.619 174.911C151.311 174.745 151.06 174.541 150.868 174.299C150.679 174.054 150.533 173.815 150.431 173.583H150.351V177.864H149.466ZM150.341 171.187C150.341 171.803 150.432 172.35 150.615 172.827C150.8 173.301 151.065 173.674 151.41 173.946C151.758 174.214 152.179 174.349 152.673 174.349C153.18 174.349 153.607 174.21 153.955 173.931C154.307 173.649 154.574 173.27 154.756 172.793C154.942 172.315 155.034 171.78 155.034 171.187C155.034 170.6 154.943 170.071 154.761 169.601C154.582 169.13 154.317 168.757 153.965 168.482C153.614 168.204 153.183 168.065 152.673 168.065C152.176 168.065 151.753 168.199 151.405 168.467C151.057 168.732 150.792 169.1 150.61 169.571C150.431 170.038 150.341 170.577 150.341 171.187ZM159.968 175.159C159.255 175.159 158.639 174.993 158.119 174.662C157.598 174.327 157.196 173.865 156.91 173.275C156.629 172.682 156.488 171.999 156.488 171.227C156.488 170.458 156.629 169.775 156.91 169.178C157.196 168.578 157.588 168.109 158.089 167.771C158.593 167.43 159.174 167.259 159.834 167.259C160.248 167.259 160.647 167.335 161.032 167.488C161.416 167.637 161.761 167.867 162.066 168.179C162.374 168.487 162.618 168.877 162.797 169.347C162.976 169.815 163.065 170.368 163.065 171.008V171.445H157.099V170.665H162.16C162.16 170.174 162.061 169.733 161.862 169.342C161.667 168.948 161.393 168.636 161.042 168.408C160.694 168.179 160.291 168.065 159.834 168.065C159.35 168.065 158.924 168.194 158.556 168.452C158.188 168.711 157.9 169.052 157.691 169.477C157.486 169.901 157.381 170.365 157.378 170.869V171.336C157.378 171.942 157.482 172.473 157.691 172.927C157.903 173.378 158.203 173.727 158.591 173.976C158.979 174.224 159.438 174.349 159.968 174.349C160.329 174.349 160.646 174.292 160.918 174.18C161.193 174.067 161.423 173.916 161.609 173.727C161.798 173.535 161.94 173.325 162.036 173.096L162.876 173.369C162.76 173.691 162.57 173.987 162.305 174.259C162.043 174.531 161.715 174.75 161.32 174.915C160.929 175.078 160.478 175.159 159.968 175.159ZM164.035 175V167.364H164.896V168.537H164.96C165.113 168.152 165.378 167.843 165.756 167.607C166.137 167.369 166.568 167.249 167.048 167.249C167.121 167.249 167.202 167.251 167.292 167.254C167.381 167.258 167.456 167.261 167.516 167.264V168.164C167.476 168.157 167.406 168.147 167.307 168.134C167.207 168.121 167.1 168.114 166.984 168.114C166.586 168.114 166.231 168.199 165.92 168.368C165.611 168.534 165.368 168.764 165.189 169.059C165.01 169.354 164.92 169.69 164.92 170.068V175H164.035ZM173.136 175.174C172.675 175.174 172.254 175.085 171.873 174.906C171.492 174.723 171.189 174.461 170.963 174.12C170.738 173.775 170.625 173.358 170.625 172.867C170.625 172.489 170.697 172.171 170.839 171.913C170.982 171.654 171.184 171.442 171.446 171.276C171.707 171.111 172.017 170.98 172.375 170.884C172.733 170.787 173.128 170.713 173.559 170.66C173.986 170.607 174.347 170.56 174.642 170.521C174.941 170.481 175.168 170.418 175.323 170.332C175.479 170.246 175.557 170.106 175.557 169.914V169.735C175.557 169.215 175.401 168.805 175.09 168.507C174.782 168.205 174.337 168.055 173.757 168.055C173.207 168.055 172.758 168.176 172.41 168.418C172.065 168.66 171.823 168.945 171.684 169.273L170.844 168.969C171.016 168.552 171.255 168.219 171.56 167.97C171.865 167.718 172.206 167.538 172.584 167.428C172.962 167.316 173.345 167.259 173.733 167.259C174.024 167.259 174.328 167.297 174.642 167.374C174.961 167.45 175.256 167.582 175.527 167.771C175.799 167.957 176.02 168.217 176.189 168.552C176.358 168.883 176.442 169.304 176.442 169.815V175H175.557V173.792H175.502C175.396 174.017 175.239 174.236 175.03 174.448C174.821 174.66 174.56 174.834 174.245 174.97C173.93 175.106 173.56 175.174 173.136 175.174ZM173.255 174.364C173.726 174.364 174.134 174.259 174.478 174.05C174.823 173.842 175.088 173.565 175.274 173.22C175.463 172.872 175.557 172.489 175.557 172.072V170.968C175.491 171.031 175.38 171.087 175.224 171.137C175.072 171.187 174.894 171.232 174.692 171.271C174.493 171.308 174.294 171.339 174.095 171.366C173.897 171.392 173.718 171.415 173.559 171.435C173.128 171.488 172.76 171.571 172.455 171.684C172.15 171.797 171.916 171.952 171.754 172.151C171.591 172.347 171.51 172.599 171.51 172.907C171.51 173.371 171.676 173.731 172.007 173.986C172.339 174.238 172.755 174.364 173.255 174.364ZM177.816 175V167.364H178.676V168.537H178.741C178.893 168.152 179.158 167.843 179.536 167.607C179.917 167.369 180.348 167.249 180.829 167.249C180.902 167.249 180.983 167.251 181.073 167.254C181.162 167.258 181.237 167.261 181.296 167.264V168.164C181.256 168.157 181.187 168.147 181.087 168.134C180.988 168.121 180.88 168.114 180.764 168.114C180.367 168.114 180.012 168.199 179.7 168.368C179.392 168.534 179.149 168.764 178.97 169.059C178.791 169.354 178.701 169.69 178.701 170.068V175H177.816ZM185.313 167.364V168.134H181.669V167.364H185.313ZM182.807 165.534H183.697V173.006C183.697 173.325 183.752 173.575 183.861 173.757C183.97 173.936 184.113 174.064 184.289 174.14C184.464 174.213 184.651 174.249 184.85 174.249C184.966 174.249 185.066 174.243 185.149 174.229C185.231 174.213 185.304 174.196 185.367 174.18L185.556 174.98C185.47 175.013 185.364 175.043 185.238 175.07C185.112 175.099 184.956 175.114 184.771 175.114C184.446 175.114 184.133 175.043 183.831 174.901C183.533 174.758 183.288 174.546 183.095 174.264C182.903 173.982 182.807 173.633 182.807 173.215V165.534ZM186.352 175V167.364H187.242V175H186.352ZM186.805 166.051C186.623 166.051 186.467 165.99 186.337 165.867C186.208 165.741 186.144 165.59 186.144 165.415C186.144 165.239 186.208 165.09 186.337 164.967C186.467 164.841 186.623 164.778 186.805 164.778C186.987 164.778 187.143 164.841 187.272 164.967C187.401 165.09 187.466 165.239 187.466 165.415C187.466 165.59 187.401 165.741 187.272 165.867C187.143 165.99 186.987 166.051 186.805 166.051ZM193.733 169.039L192.923 169.268C192.843 169.039 192.731 168.832 192.585 168.646C192.439 168.461 192.249 168.313 192.013 168.204C191.781 168.094 191.493 168.04 191.148 168.04C190.631 168.04 190.207 168.162 189.875 168.408C189.544 168.653 189.378 168.969 189.378 169.357C189.378 169.685 189.491 169.952 189.716 170.158C189.945 170.36 190.296 170.521 190.77 170.64L191.924 170.923C192.563 171.079 193.042 171.326 193.361 171.664C193.682 172.002 193.843 172.426 193.843 172.937C193.843 173.368 193.723 173.75 193.485 174.085C193.246 174.42 192.913 174.683 192.486 174.876C192.061 175.065 191.569 175.159 191.009 175.159C190.263 175.159 189.648 174.992 189.164 174.657C188.681 174.319 188.371 173.832 188.235 173.195L189.085 172.987C189.194 173.441 189.408 173.784 189.726 174.016C190.048 174.248 190.47 174.364 190.994 174.364C191.581 174.364 192.05 174.233 192.401 173.971C192.752 173.706 192.928 173.374 192.928 172.977C192.928 172.668 192.825 172.41 192.62 172.201C192.414 171.989 192.103 171.833 191.685 171.734L190.437 171.435C189.774 171.276 189.284 171.024 188.966 170.68C188.647 170.335 188.488 169.907 188.488 169.397C188.488 168.976 188.603 168.607 188.831 168.288C189.06 167.967 189.375 167.715 189.776 167.533C190.177 167.35 190.634 167.259 191.148 167.259C191.847 167.259 192.406 167.418 192.824 167.737C193.245 168.051 193.548 168.486 193.733 169.039ZM197.808 167.364V168.134H194.164V167.364H197.808ZM195.303 165.534H196.192V173.006C196.192 173.325 196.247 173.575 196.357 173.757C196.466 173.936 196.608 174.064 196.784 174.14C196.96 174.213 197.147 174.249 197.346 174.249C197.462 174.249 197.561 174.243 197.644 174.229C197.727 174.213 197.8 174.196 197.863 174.18L198.052 174.98C197.966 175.013 197.86 175.043 197.734 175.07C197.608 175.099 197.452 175.114 197.266 175.114C196.942 175.114 196.628 175.043 196.327 174.901C196.028 174.758 195.783 174.546 195.591 174.264C195.399 173.982 195.303 173.633 195.303 173.215V165.534Z" fill="#202020"/>
<rect x="210" y="158" width="78" height="24" rx="7" fill="#2D4EA2"/>
<rect x="251" y="161" width="35" height="18" rx="7" fill="#D9D9D9"/>
<path d="M216.352 175V164.818H219.788C220.451 164.818 221.002 164.934 221.443 165.166C221.887 165.398 222.22 165.715 222.442 166.116C222.665 166.517 222.776 166.973 222.776 167.483C222.776 167.907 222.704 168.27 222.562 168.572C222.419 168.873 222.225 169.117 221.98 169.303C221.735 169.488 221.461 169.622 221.16 169.705V169.785C221.488 169.808 221.806 169.924 222.114 170.133C222.423 170.338 222.676 170.627 222.875 170.998C223.074 171.369 223.173 171.813 223.173 172.33C223.173 172.844 223.059 173.303 222.83 173.707C222.602 174.108 222.25 174.425 221.776 174.657C221.306 174.886 220.706 175 219.977 175H216.352ZM217.282 174.165H219.977C220.762 174.165 221.342 173.991 221.717 173.643C222.094 173.295 222.283 172.857 222.283 172.33C222.283 171.942 222.189 171.591 222 171.276C221.814 170.958 221.551 170.706 221.21 170.521C220.871 170.335 220.474 170.242 220.016 170.242H217.282V174.165ZM217.282 169.417H219.872C220.273 169.417 220.625 169.334 220.926 169.168C221.228 169.003 221.463 168.774 221.632 168.482C221.801 168.191 221.886 167.857 221.886 167.483C221.886 166.943 221.71 166.504 221.359 166.165C221.007 165.824 220.484 165.653 219.788 165.653H217.282V169.417ZM224.437 175V164.818H227.723C228.445 164.818 229.049 164.957 229.533 165.236C230.02 165.511 230.386 165.885 230.631 166.359C230.88 166.833 231.004 167.367 231.004 167.96C231.004 168.554 230.882 169.089 230.636 169.566C230.391 170.04 230.026 170.416 229.543 170.695C229.059 170.97 228.457 171.107 227.738 171.107H225.153V170.272H227.713C228.247 170.272 228.689 170.173 229.04 169.974C229.392 169.772 229.654 169.496 229.826 169.148C230.002 168.8 230.089 168.404 230.089 167.96C230.089 167.516 230.002 167.12 229.826 166.772C229.654 166.424 229.39 166.151 229.035 165.952C228.684 165.753 228.238 165.653 227.698 165.653H225.366V175H224.437ZM232.207 164.818H233.281L236.974 173.688H237.064L240.758 164.818H241.832V175H240.957V166.782H240.877L237.442 175H236.597L233.161 166.782H233.082V175H232.207V164.818ZM244.081 173.474C243.885 173.474 243.716 173.404 243.574 173.265C243.434 173.122 243.365 172.953 243.365 172.758C243.365 172.559 243.434 172.39 243.574 172.251C243.716 172.112 243.885 172.042 244.081 172.042C244.28 172.042 244.449 172.112 244.588 172.251C244.727 172.39 244.797 172.559 244.797 172.758C244.797 172.887 244.764 173.006 244.697 173.116C244.634 173.225 244.548 173.313 244.439 173.379C244.333 173.442 244.213 173.474 244.081 173.474ZM244.081 168.308C243.885 168.308 243.716 168.239 243.574 168.099C243.434 167.957 243.365 167.788 243.365 167.592C243.365 167.397 243.434 167.229 243.574 167.09C243.716 166.948 243.885 166.876 244.081 166.876C244.28 166.876 244.449 166.948 244.588 167.09C244.727 167.229 244.797 167.397 244.797 167.592C244.797 167.722 244.764 167.841 244.697 167.95C244.634 168.06 244.548 168.147 244.439 168.214C244.333 168.277 244.213 168.308 244.081 168.308Z" fill="white"/>
<path d="M254.208 170.804C254.215 170.347 254.308 169.972 254.487 169.68C254.669 169.389 254.902 169.173 255.188 169.034C255.476 168.892 255.786 168.82 256.117 168.82C256.455 168.82 256.759 168.892 257.027 169.034C257.295 169.177 257.584 169.375 257.892 169.631C258.121 169.816 258.315 169.954 258.474 170.043C258.636 170.133 258.815 170.178 259.011 170.178C259.319 170.181 259.571 170.08 259.766 169.874C259.962 169.669 260.071 169.382 260.094 169.014L260.915 169.039C260.898 169.493 260.799 169.864 260.616 170.153C260.438 170.441 260.207 170.655 259.925 170.794C259.644 170.933 259.344 171.003 259.026 171.003C258.704 171 258.414 170.93 258.156 170.794C257.897 170.655 257.612 170.459 257.3 170.207C257.072 170.018 256.873 169.878 256.704 169.785C256.535 169.692 256.343 169.644 256.127 169.641C255.819 169.641 255.56 169.738 255.352 169.934C255.146 170.126 255.038 170.42 255.028 170.814L254.208 170.804Z" fill="#202020" fill-opacity="0.25"/>
<path d="M265.415 164.818V175H264.485V165.793H264.425L262.039 167.379V166.414L264.445 164.818H265.415ZM270.689 175.139C269.973 175.139 269.362 174.934 268.854 174.523C268.351 174.108 267.963 173.51 267.691 172.728C267.423 171.946 267.288 171.006 267.288 169.909C267.288 168.815 267.423 167.879 267.691 167.1C267.963 166.318 268.352 165.72 268.859 165.305C269.37 164.888 269.98 164.679 270.689 164.679C271.398 164.679 272.006 164.888 272.514 165.305C273.024 165.72 273.413 166.318 273.682 167.1C273.954 167.879 274.09 168.815 274.09 169.909C274.09 171.006 273.954 171.946 273.682 172.728C273.413 173.51 273.026 174.108 272.519 174.523C272.015 174.934 271.405 175.139 270.689 175.139ZM270.689 174.304C271.474 174.304 272.088 173.921 272.528 173.156C272.969 172.387 273.19 171.304 273.19 169.909C273.19 168.981 273.089 168.189 272.886 167.533C272.688 166.873 272.401 166.369 272.026 166.021C271.655 165.673 271.209 165.499 270.689 165.499C269.91 165.499 269.299 165.887 268.854 166.663C268.41 167.435 268.188 168.517 268.188 169.909C268.188 170.837 268.288 171.629 268.487 172.286C268.689 172.942 268.975 173.442 269.347 173.787C269.721 174.132 270.169 174.304 270.689 174.304ZM278.295 175.139C277.579 175.139 276.967 174.934 276.46 174.523C275.957 174.108 275.569 173.51 275.297 172.728C275.029 171.946 274.894 171.006 274.894 169.909C274.894 168.815 275.029 167.879 275.297 167.1C275.569 166.318 275.958 165.72 276.465 165.305C276.976 164.888 277.586 164.679 278.295 164.679C279.004 164.679 279.612 164.888 280.119 165.305C280.63 165.72 281.019 166.318 281.288 167.1C281.56 167.879 281.695 168.815 281.695 169.909C281.695 171.006 281.56 171.946 281.288 172.728C281.019 173.51 280.632 174.108 280.124 174.523C279.621 174.934 279.011 175.139 278.295 175.139ZM278.295 174.304C279.08 174.304 279.694 173.921 280.134 173.156C280.575 172.387 280.796 171.304 280.796 169.909C280.796 168.981 280.695 168.189 280.492 167.533C280.293 166.873 280.007 166.369 279.632 166.021C279.261 165.673 278.815 165.499 278.295 165.499C277.516 165.499 276.905 165.887 276.46 166.663C276.016 167.435 275.794 168.517 275.794 169.909C275.794 170.837 275.894 171.629 276.092 172.286C276.295 172.942 276.581 173.442 276.953 173.787C277.327 174.132 277.775 174.304 278.295 174.304Z" fill="#202020"/>
<path d="M92.7173 123V115.727H95.4446C96.0033 115.727 96.4721 115.824 96.8509 116.018C97.232 116.213 97.5196 116.485 97.7138 116.835C97.9103 117.183 98.0085 117.589 98.0085 118.053C98.0085 118.52 97.9091 118.924 97.7102 119.268C97.5137 119.609 97.2237 119.873 96.8402 120.06C96.4567 120.244 95.9856 120.337 95.4268 120.337H93.4844V119.243H95.2493C95.576 119.243 95.8435 119.198 96.0518 119.108C96.2602 119.016 96.4141 118.882 96.5135 118.707C96.6153 118.529 96.6662 118.311 96.6662 118.053C96.6662 117.795 96.6153 117.575 96.5135 117.393C96.4117 117.208 96.2566 117.068 96.0483 116.974C95.84 116.877 95.5713 116.828 95.2422 116.828H94.0348V123H92.7173ZM96.4744 119.705L98.2749 123H96.8047L95.0362 119.705H96.4744ZM100.801 123.107C100.254 123.107 99.7819 122.993 99.3842 122.766C98.9888 122.536 98.6846 122.212 98.4715 121.793C98.2585 121.371 98.1519 120.875 98.1519 120.305C98.1519 119.744 98.2585 119.251 98.4715 118.827C98.687 118.401 98.9876 118.07 99.3735 117.833C99.7594 117.594 100.213 117.474 100.734 117.474C101.07 117.474 101.387 117.529 101.685 117.638C101.986 117.744 102.251 117.91 102.481 118.135C102.713 118.36 102.895 118.646 103.028 118.994C103.16 119.34 103.226 119.752 103.226 120.23V120.624H98.7556V119.758H101.994C101.992 119.512 101.939 119.293 101.834 119.101C101.73 118.907 101.585 118.754 101.398 118.643C101.213 118.531 100.998 118.476 100.751 118.476C100.489 118.476 100.258 118.54 100.059 118.668C99.86 118.793 99.7049 118.959 99.5937 119.165C99.4848 119.368 99.4291 119.592 99.4268 119.836V120.592C99.4268 120.91 99.4848 121.182 99.6008 121.409C99.7168 121.634 99.879 121.807 100.087 121.928C100.296 122.046 100.539 122.105 100.819 122.105C101.006 122.105 101.175 122.079 101.327 122.027C101.478 121.973 101.61 121.893 101.721 121.789C101.832 121.685 101.916 121.556 101.973 121.402L103.173 121.537C103.097 121.854 102.953 122.131 102.74 122.368C102.529 122.602 102.259 122.785 101.93 122.915C101.601 123.043 101.225 123.107 100.801 123.107ZM105.993 123.107C105.449 123.107 104.981 122.987 104.591 122.748C104.202 122.509 103.903 122.179 103.692 121.757C103.484 121.333 103.38 120.846 103.38 120.294C103.38 119.74 103.486 119.251 103.699 118.827C103.912 118.401 104.213 118.07 104.601 117.833C104.992 117.594 105.454 117.474 105.986 117.474C106.429 117.474 106.821 117.556 107.162 117.719C107.505 117.88 107.778 118.109 107.982 118.405C108.186 118.698 108.302 119.042 108.33 119.435H107.101C107.052 119.172 106.933 118.953 106.746 118.778C106.561 118.6 106.314 118.511 106.004 118.511C105.741 118.511 105.51 118.582 105.311 118.724C105.113 118.864 104.958 119.065 104.846 119.328C104.737 119.591 104.683 119.906 104.683 120.273C104.683 120.644 104.737 120.964 104.846 121.232C104.955 121.497 105.108 121.701 105.304 121.846C105.503 121.988 105.736 122.059 106.004 122.059C106.193 122.059 106.363 122.023 106.512 121.952C106.663 121.879 106.79 121.774 106.892 121.636C106.994 121.499 107.063 121.332 107.101 121.136H108.33C108.299 121.522 108.186 121.864 107.989 122.162C107.793 122.458 107.525 122.69 107.186 122.858C106.848 123.024 106.45 123.107 105.993 123.107ZM111.1 123.107C110.553 123.107 110.081 122.993 109.683 122.766C109.288 122.536 108.984 122.212 108.771 121.793C108.558 121.371 108.451 120.875 108.451 120.305C108.451 119.744 108.558 119.251 108.771 118.827C108.986 118.401 109.287 118.07 109.673 117.833C110.059 117.594 110.512 117.474 111.033 117.474C111.369 117.474 111.686 117.529 111.985 117.638C112.285 117.744 112.55 117.91 112.78 118.135C113.012 118.36 113.194 118.646 113.327 118.994C113.459 119.34 113.526 119.752 113.526 120.23V120.624H109.055V119.758H112.293C112.291 119.512 112.238 119.293 112.134 119.101C112.029 118.907 111.884 118.754 111.697 118.643C111.512 118.531 111.297 118.476 111.051 118.476C110.788 118.476 110.557 118.54 110.358 118.668C110.159 118.793 110.004 118.959 109.893 119.165C109.784 119.368 109.728 119.592 109.726 119.836V120.592C109.726 120.91 109.784 121.182 109.9 121.409C110.016 121.634 110.178 121.807 110.387 121.928C110.595 122.046 110.839 122.105 111.118 122.105C111.305 122.105 111.474 122.079 111.626 122.027C111.777 121.973 111.909 121.893 112.02 121.789C112.131 121.685 112.215 121.556 112.272 121.402L113.472 121.537C113.397 121.854 113.252 122.131 113.039 122.368C112.829 122.602 112.559 122.785 112.23 122.915C111.9 123.043 111.524 123.107 111.1 123.107ZM115.199 119.804V123H113.913V117.545H115.142V118.472H115.206C115.331 118.167 115.531 117.924 115.806 117.744C116.083 117.564 116.425 117.474 116.832 117.474C117.209 117.474 117.537 117.555 117.816 117.716C118.098 117.877 118.315 118.11 118.469 118.415C118.626 118.721 118.703 119.091 118.7 119.527V123H117.415V119.726C117.415 119.361 117.32 119.076 117.131 118.87C116.944 118.664 116.684 118.561 116.353 118.561C116.128 118.561 115.928 118.611 115.753 118.71C115.58 118.807 115.444 118.948 115.344 119.133C115.247 119.317 115.199 119.541 115.199 119.804ZM122.031 117.545V118.54H118.895V117.545H122.031ZM119.669 116.239H120.955V121.359C120.955 121.532 120.981 121.665 121.033 121.757C121.087 121.847 121.158 121.909 121.246 121.942C121.334 121.975 121.431 121.991 121.537 121.991C121.618 121.991 121.691 121.986 121.757 121.974C121.826 121.962 121.878 121.951 121.914 121.942L122.13 122.947C122.061 122.97 121.963 122.996 121.835 123.025C121.71 123.053 121.556 123.07 121.374 123.075C121.052 123.084 120.762 123.036 120.504 122.929C120.246 122.82 120.041 122.652 119.889 122.425C119.74 122.197 119.667 121.913 119.669 121.572V116.239ZM128.497 118.987L127.325 119.115C127.292 118.997 127.234 118.885 127.151 118.781C127.071 118.677 126.962 118.593 126.825 118.529C126.687 118.465 126.519 118.433 126.321 118.433C126.053 118.433 125.828 118.491 125.646 118.607C125.466 118.723 125.377 118.874 125.379 119.058C125.377 119.217 125.435 119.346 125.553 119.445C125.674 119.545 125.873 119.626 126.15 119.69L127.08 119.889C127.597 120 127.98 120.177 128.231 120.418C128.484 120.66 128.612 120.976 128.615 121.366C128.612 121.71 128.512 122.013 128.313 122.276C128.116 122.536 127.843 122.74 127.492 122.886C127.142 123.033 126.74 123.107 126.285 123.107C125.617 123.107 125.08 122.967 124.673 122.688C124.266 122.406 124.023 122.014 123.945 121.512L125.198 121.391C125.255 121.638 125.376 121.823 125.561 121.949C125.745 122.074 125.986 122.137 126.281 122.137C126.587 122.137 126.832 122.074 127.017 121.949C127.204 121.823 127.297 121.668 127.297 121.484C127.297 121.327 127.237 121.198 127.116 121.097C126.998 120.995 126.813 120.917 126.562 120.862L125.632 120.667C125.108 120.558 124.721 120.375 124.47 120.116C124.219 119.856 124.095 119.527 124.098 119.129C124.095 118.793 124.186 118.502 124.371 118.256C124.558 118.007 124.817 117.815 125.149 117.68C125.482 117.543 125.867 117.474 126.303 117.474C126.942 117.474 127.445 117.611 127.812 117.883C128.181 118.155 128.41 118.523 128.497 118.987ZM131.389 123.107C130.842 123.107 130.37 122.993 129.972 122.766C129.577 122.536 129.273 122.212 129.06 121.793C128.847 121.371 128.74 120.875 128.74 120.305C128.74 119.744 128.847 119.251 129.06 118.827C129.275 118.401 129.576 118.07 129.962 117.833C130.348 117.594 130.801 117.474 131.322 117.474C131.658 117.474 131.975 117.529 132.274 117.638C132.574 117.744 132.839 117.91 133.069 118.135C133.301 118.36 133.483 118.646 133.616 118.994C133.748 119.34 133.815 119.752 133.815 120.23V120.624H129.344V119.758H132.583C132.58 119.512 132.527 119.293 132.423 119.101C132.319 118.907 132.173 118.754 131.986 118.643C131.801 118.531 131.586 118.476 131.34 118.476C131.077 118.476 130.846 118.54 130.647 118.668C130.448 118.793 130.293 118.959 130.182 119.165C130.073 119.368 130.017 119.592 130.015 119.836V120.592C130.015 120.91 130.073 121.182 130.189 121.409C130.305 121.634 130.467 121.807 130.676 121.928C130.884 122.046 131.128 122.105 131.407 122.105C131.594 122.105 131.763 122.079 131.915 122.027C132.066 121.973 132.198 121.893 132.309 121.789C132.42 121.685 132.504 121.556 132.561 121.402L133.762 121.537C133.686 121.854 133.541 122.131 133.328 122.368C133.118 122.602 132.848 122.785 132.519 122.915C132.19 123.043 131.813 123.107 131.389 123.107ZM135.772 123.11C135.426 123.11 135.115 123.049 134.838 122.925C134.563 122.8 134.346 122.615 134.185 122.371C134.026 122.128 133.947 121.827 133.947 121.469C133.947 121.162 134.003 120.907 134.117 120.706C134.231 120.505 134.386 120.344 134.582 120.223C134.779 120.102 135 120.011 135.246 119.95C135.495 119.886 135.752 119.839 136.017 119.811C136.337 119.778 136.596 119.748 136.795 119.722C136.994 119.694 137.138 119.651 137.228 119.594C137.32 119.535 137.366 119.444 137.366 119.321V119.3C137.366 119.032 137.287 118.825 137.128 118.678C136.97 118.531 136.741 118.458 136.443 118.458C136.128 118.458 135.878 118.527 135.694 118.664C135.511 118.801 135.388 118.964 135.324 119.151L134.124 118.98C134.219 118.649 134.375 118.372 134.593 118.149C134.811 117.924 135.077 117.756 135.392 117.645C135.707 117.531 136.055 117.474 136.436 117.474C136.699 117.474 136.96 117.505 137.221 117.567C137.481 117.628 137.719 117.73 137.935 117.872C138.15 118.012 138.323 118.202 138.453 118.444C138.586 118.685 138.652 118.987 138.652 119.349V123H137.416V122.251H137.373C137.295 122.402 137.185 122.544 137.043 122.677C136.904 122.807 136.727 122.912 136.514 122.993C136.303 123.071 136.056 123.11 135.772 123.11ZM136.106 122.165C136.364 122.165 136.587 122.115 136.777 122.013C136.966 121.909 137.112 121.771 137.214 121.601C137.318 121.43 137.37 121.245 137.37 121.043V120.401C137.33 120.434 137.261 120.464 137.164 120.493C137.069 120.521 136.963 120.546 136.844 120.567C136.726 120.589 136.609 120.608 136.493 120.624C136.377 120.641 136.276 120.655 136.191 120.667C135.999 120.693 135.828 120.736 135.676 120.795C135.525 120.854 135.405 120.937 135.317 121.043C135.23 121.147 135.186 121.282 135.186 121.448C135.186 121.685 135.272 121.864 135.445 121.984C135.618 122.105 135.838 122.165 136.106 122.165ZM139.244 123V117.545H140.491V118.455H140.548C140.647 118.14 140.818 117.897 141.059 117.727C141.303 117.554 141.581 117.467 141.894 117.467C141.965 117.467 142.044 117.471 142.132 117.478C142.222 117.483 142.296 117.491 142.355 117.503V118.685C142.301 118.666 142.214 118.65 142.096 118.636C141.98 118.619 141.868 118.611 141.759 118.611C141.524 118.611 141.314 118.662 141.127 118.763C140.942 118.863 140.796 119.001 140.69 119.179C140.583 119.357 140.53 119.561 140.53 119.793V123H139.244ZM144.664 123.107C144.119 123.107 143.652 122.987 143.261 122.748C142.873 122.509 142.574 122.179 142.363 121.757C142.155 121.333 142.05 120.846 142.05 120.294C142.05 119.74 142.157 119.251 142.37 118.827C142.583 118.401 142.884 118.07 143.272 117.833C143.663 117.594 144.124 117.474 144.657 117.474C145.1 117.474 145.491 117.556 145.832 117.719C146.176 117.88 146.449 118.109 146.653 118.405C146.856 118.698 146.972 119.042 147.001 119.435H145.772C145.722 119.172 145.604 118.953 145.417 118.778C145.232 118.6 144.985 118.511 144.675 118.511C144.412 118.511 144.181 118.582 143.982 118.724C143.783 118.864 143.628 119.065 143.517 119.328C143.408 119.591 143.354 119.906 143.354 120.273C143.354 120.644 143.408 120.964 143.517 121.232C143.626 121.497 143.779 121.701 143.975 121.846C144.174 121.988 144.407 122.059 144.675 122.059C144.864 122.059 145.033 122.023 145.182 121.952C145.334 121.879 145.461 121.774 145.562 121.636C145.664 121.499 145.734 121.332 145.772 121.136H147.001C146.97 121.522 146.856 121.864 146.66 122.162C146.463 122.458 146.196 122.69 145.857 122.858C145.519 123.024 145.121 123.107 144.664 123.107ZM148.642 119.804V123H147.356V115.727H148.613V118.472H148.677C148.805 118.165 149.003 117.922 149.27 117.744C149.54 117.564 149.883 117.474 150.3 117.474C150.679 117.474 151.009 117.554 151.291 117.712C151.573 117.871 151.79 118.103 151.944 118.408C152.101 118.714 152.179 119.087 152.179 119.527V123H150.893V119.726C150.893 119.359 150.798 119.074 150.609 118.87C150.422 118.664 150.159 118.561 149.821 118.561C149.593 118.561 149.39 118.611 149.21 118.71C149.032 118.807 148.893 118.948 148.791 119.133C148.691 119.317 148.642 119.541 148.642 119.804ZM155.204 123.107C154.657 123.107 154.185 122.993 153.787 122.766C153.392 122.536 153.087 122.212 152.874 121.793C152.661 121.371 152.555 120.875 152.555 120.305C152.555 119.744 152.661 119.251 152.874 118.827C153.09 118.401 153.39 118.07 153.776 117.833C154.162 117.594 154.615 117.474 155.136 117.474C155.473 117.474 155.79 117.529 156.088 117.638C156.389 117.744 156.654 117.91 156.883 118.135C157.115 118.36 157.298 118.646 157.43 118.994C157.563 119.34 157.629 119.752 157.629 120.23V120.624H153.158V119.758H156.397C156.395 119.512 156.341 119.293 156.237 119.101C156.133 118.907 155.987 118.754 155.8 118.643C155.616 118.531 155.4 118.476 155.154 118.476C154.891 118.476 154.66 118.54 154.462 118.668C154.263 118.793 154.108 118.959 153.996 119.165C153.888 119.368 153.832 119.592 153.83 119.836V120.592C153.83 120.91 153.888 121.182 154.004 121.409C154.12 121.634 154.282 121.807 154.49 121.928C154.698 122.046 154.942 122.105 155.222 122.105C155.409 122.105 155.578 122.079 155.729 122.027C155.881 121.973 156.012 121.893 156.124 121.789C156.235 121.685 156.319 121.556 156.376 121.402L157.576 121.537C157.5 121.854 157.356 122.131 157.143 122.368C156.932 122.602 156.662 122.785 156.333 122.915C156.004 123.043 155.628 123.107 155.204 123.107ZM162.328 118.987L161.156 119.115C161.123 118.997 161.065 118.885 160.982 118.781C160.901 118.677 160.793 118.593 160.655 118.529C160.518 118.465 160.35 118.433 160.151 118.433C159.883 118.433 159.659 118.491 159.476 118.607C159.296 118.723 159.208 118.874 159.21 119.058C159.208 119.217 159.266 119.346 159.384 119.445C159.505 119.545 159.704 119.626 159.981 119.69L160.911 119.889C161.427 120 161.811 120.177 162.062 120.418C162.315 120.66 162.443 120.976 162.445 121.366C162.443 121.71 162.342 122.013 162.143 122.276C161.947 122.536 161.673 122.74 161.323 122.886C160.972 123.033 160.57 123.107 160.115 123.107C159.448 123.107 158.91 122.967 158.503 122.688C158.096 122.406 157.853 122.014 157.775 121.512L159.029 121.391C159.086 121.638 159.206 121.823 159.391 121.949C159.576 122.074 159.816 122.137 160.112 122.137C160.417 122.137 160.662 122.074 160.847 121.949C161.034 121.823 161.128 121.668 161.128 121.484C161.128 121.327 161.067 121.198 160.946 121.097C160.828 120.995 160.643 120.917 160.392 120.862L159.462 120.667C158.939 120.558 158.552 120.375 158.301 120.116C158.05 119.856 157.926 119.527 157.928 119.129C157.926 118.793 158.017 118.502 158.201 118.256C158.388 118.007 158.648 117.815 158.979 117.68C159.313 117.543 159.698 117.474 160.133 117.474C160.772 117.474 161.276 117.611 161.642 117.883C162.012 118.155 162.24 118.523 162.328 118.987Z" fill="black"/>
<path d="M84.999 110.5L572.999 109.496" stroke="#757575"/>
</g>
<defs>
<clipPath id="clip0_521_7068">
<rect width="573" height="211" fill="white"/>
</clipPath>
</defs>
</svg>
